<svg width="519" height="104" viewBox="0 0 519 104" fill="none" xmlns="http://www.w3.org/2000/svg">
<path d="M1.81168 9.60233C3.28007 9.60233 6.52196 9.88586 8.12384 10.2261C9.17269 10.434 9.45873 10.5096 9.17268 11.5493C8.61965 14.1956 8.33361 17.4656 8.33361 20.1687C8.33361 30.3192 8.40989 37.4264 8.4671 39.8648C8.4671 41.5282 8.4671 41.8117 9.802 41.3959C12.3955 40.6965 16.6863 39.0331 20.691 37.0105C25.611 34.4965 30.0924 31.8691 34.4404 28.9393C36.1948 27.7485 37.7396 26.6521 39.494 25.121L43.0028 22.2668C43.5558 21.851 43.7084 21.9833 43.8419 22.4747C43.9754 23.0985 44.7572 25.9527 45.1005 27.2759C45.234 27.8997 45.3866 28.2588 44.8145 28.7314C44.681 28.807 44.5284 28.9393 44.3186 29.1472C35.966 36.1032 26.6217 41.4526 16.877 46.3293C9.85921 49.8073 6.84615 51.2061 5.35869 51.5463C4.6531 51.6787 4.44334 51.6787 4.23357 51.622C3.94752 51.4896 1.9261 50.1665 1.84982 50.0909C1.43028 49.8073 1.29679 49.675 1.354 48.7677C1.56377 46.5373 1.64005 38.466 1.27772 19.337C1.23958 14.7437 1.10609 12.173 0.89632 10.7176C0.820041 9.73464 0.9726 9.60233 1.81168 9.60233Z" fill="#EF3B2C"/>
<path d="M55.856 49.9208L57.3816 49.5238C61.0049 48.6732 64.304 47.4257 67.6031 45.6678C71.7603 43.5129 75.7078 40.6398 78.4921 36.8404C79.026 36.1221 79.4837 35.3282 79.6744 34.8179C79.8078 34.4209 79.6744 34.1563 79.3502 33.9106C78.0916 32.871 73.8008 31.0374 71.8367 29.9789C70.9213 29.5253 70.9785 29.3173 71.3789 28.807C71.7031 28.2777 74.3539 25.5369 74.3539 25.4802C74.6208 25.2912 74.8879 25.2912 75.1548 25.3479L76.6042 25.8771C78.9116 26.671 81.2191 27.5783 83.5265 28.5613C84.2512 28.8826 84.4419 28.8259 84.8424 28.032C86.2344 25.4802 88.3321 19.4693 88.5419 18.6754C88.7326 17.8248 88.6754 17.6925 88.3512 17.6925C87.9507 17.6358 77.7293 17.6358 75.5553 17.6925C75.0213 17.6925 74.8879 17.8248 74.6399 18.2217C73.4576 19.8473 70.6734 23.6467 68.7091 25.8015C66.0775 28.618 63.236 31.2265 62.0537 32.0204C61.7296 32.285 61.4625 32.2094 61.0621 32.0771C59.7462 31.4911 56.5806 29.8466 55.856 29.2606C55.4556 28.996 55.3983 28.7314 55.7225 28.41C56.5806 27.5027 60.0705 25.2723 65.2956 18.5998C67.0119 16.4449 69.2622 12.7212 71.0356 8.4682C71.8176 6.57798 72.5612 4.74447 73.019 2.77863C73.1525 1.98474 73.2097 1.79572 74.1441 1.92804L75.3264 2.24937C76.0511 2.43839 79.5409 3.68594 80.7423 4.53654C81.2762 4.93349 81.2 5.25483 80.933 5.78409C80.7995 6.18103 80.5325 6.767 80.0749 7.67431L78.4921 11.0767C78.3014 11.5304 78.3586 11.6627 79.293 11.7383C80.0939 11.7383 86.7494 11.606 88.9233 11.5493C89.3239 11.4925 89.5908 11.4925 89.8387 11.2279C90.2391 10.7743 90.8876 9.92367 91.2309 9.71575C91.822 9.3188 92.4894 8.92185 97.6955 13.7608C99.2784 15.273 98.096 15.3297 96.8946 17.1632C96.7039 17.4278 96.4369 17.8815 96.1699 18.5431C95.2546 21.0949 93.5955 25.14 93.0615 26.4631C92.4703 27.8997 91.0783 30.8484 90.6205 31.7557C90.3536 32.285 90.6205 32.4173 91.021 32.663L94.9113 35.6685C95.369 36.1221 95.7122 36.3301 95.369 36.9727C95.0448 37.6343 91.7457 41.8117 91.1545 42.2654C90.8303 42.53 90.6205 42.53 90.1629 42.0763C90.1057 42.0196 87.8554 39.6569 86.5396 39.0709C86.0819 38.8819 86.0819 39.0142 85.8149 39.3355L85.014 40.3184C82.1726 43.8531 78.6065 46.783 74.8496 49.3348C68.652 53.4555 63.5602 55.0811 63.1026 55.289C59.7462 56.4609 59.9369 56.3286 58.0871 53.9847C56.5615 52.1512 55.9132 51.2439 55.6463 50.6579C55.3983 50.2421 55.3983 50.0531 55.856 49.9208Z" fill="#EF3B2C"/>
<path d="M111.807 24.743C111.941 24.3461 112.075 24.2894 112.799 24.4217C113.256 24.4784 113.982 24.6107 115.049 24.743C116.766 25.0076 119.073 25.14 121.704 25.2723C126.586 25.5369 132.06 25.6692 137.151 25.6692C142.223 25.6692 146.724 25.6125 151.72 25.2723C153.895 25.0833 156.068 24.8753 158.243 24.554C158.91 24.4973 159.425 24.2894 159.501 25.14C159.501 25.9339 159.692 31.1509 159.769 32.1338C159.825 33.1167 159.444 33.3057 158.643 33.1167C156.736 32.663 154.676 32.5307 152.712 32.3984C149.356 32.1338 143.998 31.8124 137.342 31.8124C133.052 31.8124 128.57 31.7557 124.813 31.8691C122.906 31.9259 120.923 32.0582 118.939 32.2661C117.49 32.3984 116.098 32.5874 114.725 32.8521L112.684 33.249C112.017 33.3813 111.903 33.1923 111.903 32.5874C111.673 30.8295 111.673 25.1967 111.807 24.743Z" fill="#EF3B2C"/>
<path d="M291.389 24.743C291.523 24.3461 291.657 24.2894 292.381 24.4217C292.838 24.4784 293.564 24.6107 294.631 24.743C296.348 25.0076 298.655 25.14 301.286 25.2723C306.168 25.5369 311.642 25.6692 316.733 25.6692C321.806 25.6692 326.307 25.6125 331.302 25.2723C333.477 25.0833 335.65 24.8753 337.825 24.554C338.492 24.4973 339.007 24.2894 339.083 25.14C339.083 25.9339 339.274 31.1509 339.35 32.1338C339.407 33.1167 339.026 33.3057 338.225 33.1167C336.318 32.663 334.258 32.5307 332.294 32.3984C328.938 32.1338 323.58 31.8124 316.924 31.8124C312.634 31.8124 308.152 31.7557 304.395 31.8691C302.488 31.9259 300.505 32.0582 298.521 32.2661C297.072 32.3984 295.68 32.5874 294.307 32.8521L292.266 33.249C291.599 33.3813 291.485 33.1923 291.485 32.5874C291.255 30.8295 291.255 25.1967 291.389 24.743Z" fill="#EF3B2C"/>
<path d="M172.297 43.4373C174.472 42.719 176.645 41.8684 178.762 40.8855C186.752 37.2941 193.274 31.2076 198.556 24.2704C199.949 22.4369 201.055 20.7357 201.532 19.8284C201.932 19.1101 201.932 18.9211 200.94 18.9211C199.949 18.9211 197.241 18.9778 195.334 19.1101C190.986 19.2992 185.837 19.7717 184.445 19.904C182.061 20.1687 180.555 20.49 179.697 20.6223C178.914 20.679 178.838 20.301 178.838 19.5827C178.705 17.6925 178.571 14.4224 178.648 13.3072C178.648 12.7212 178.838 12.7212 179.372 12.7212C181.146 12.7212 183.854 12.7779 185.97 12.7779L194.609 12.6456C197.375 12.6456 200.159 12.4566 202.924 12.1919C203.648 12.1352 204.773 12.0029 205.555 11.6627C206.146 11.398 206.871 11.0011 207.462 10.6798C207.996 10.3584 208.377 10.2261 208.988 10.7365C210.113 11.5871 212.344 13.9498 213.012 14.7248C213.412 15.2541 213.336 15.7077 212.821 16.1047C212.554 16.237 212.153 16.5016 211.695 16.8986C210.571 17.9382 208.263 21.8699 207.863 22.5314C206.47 24.6296 204.831 26.9735 203.839 28.2777C203.248 29.1283 203.305 29.3173 204.105 29.9033C204.697 30.4326 205.822 31.0752 207.329 32.3228C212.21 36.1788 217.76 41.7361 219.21 44.3635C219.876 45.4031 219.476 45.6678 218.618 46.386C217.226 47.369 214.919 49.1269 214.537 49.3348C213.812 49.6561 213.546 49.6561 213.088 48.8055C211.048 45.4031 208.396 42.53 205.631 39.7136C203.782 37.7477 201.798 35.9142 199.625 34.3453C198.957 33.8917 198.842 33.9484 198.309 34.4776C197.984 34.7423 197.584 35.1392 197.317 35.4606C193.027 39.8459 188.087 43.5129 182.671 46.3104C181.089 47.1043 179.506 47.8226 177.846 48.4653C176.207 49.0512 175.539 49.1269 174.815 48.333C174.089 47.6147 171.706 44.9306 171.648 44.8739C171.324 44.5525 170.924 43.9666 171.458 43.7019C171.648 43.6452 171.973 43.5129 172.297 43.4373Z" fill="#EF3B2C"/>
<path d="M226.666 26.4442C231.948 24.2894 236.963 21.7943 241.979 19.0534C243.562 18.2028 245.012 17.3522 246.46 16.823C248.177 16.1614 249.893 15.9724 251.8 16.8797C253.192 17.598 257.597 21.1327 261.964 24.7241C265.664 27.7296 269.288 30.735 271.27 32.2472C273.979 34.213 276.476 35.7819 279.261 37.3508C279.794 37.6721 280.309 37.9368 279.985 38.5983C279.794 39.052 279.261 39.8459 278.136 41.2824L276.229 43.5129C275.428 44.4202 274.97 44.3635 274.055 43.7019C273.139 43.116 271.614 41.944 268.773 39.6569C267.056 38.277 260 32.2094 258.15 30.5649C253.726 26.4442 252.01 24.157 249.645 23.968C248.462 23.9113 247.07 24.365 245.03 25.4802C242.532 26.8601 234.408 31.6234 232.883 32.6819C232.215 33.0789 231.757 33.4758 231.433 33.6649C230.765 34.0618 230.518 34.0618 229.907 33.3435C229.241 32.6252 226.342 28.2399 226.074 27.7863C225.484 26.8412 225.674 26.8412 226.666 26.4442ZM278.002 10.6231C277.735 9.11088 277.087 7.88223 276.152 6.89932C273.768 4.53654 269.878 4.2152 267.304 6.44566C266.045 7.48529 265.053 9.05417 264.729 10.6987C263.871 15.084 268.353 19.337 272.777 18.2784C276.152 17.4846 278.517 13.6285 278.002 10.6231ZM272.719 8.92185C274.245 9.71575 274.703 11.9273 273.845 13.3072C272.662 15.1974 269.554 15.1407 268.562 13.0425C268.028 11.9273 268.239 10.434 269.288 9.50782C270.278 8.65722 271.861 8.52491 272.719 8.92185Z" fill="#EF3B2C"/>
<path d="M355.789 21.7376C356.189 21.1516 356.513 20.9437 357.047 21.1516C357.905 21.5485 360.746 23.0418 362.463 23.968C364.179 24.8186 366.62 26.2552 366.754 26.3308C367.345 26.7277 367.345 27.0491 367.078 27.5783L364.236 32.285C363.97 32.6819 363.779 32.6819 363.321 32.4173C362.787 32.1527 356.723 28.618 353.614 27.1247C352.89 26.7277 352.89 26.5954 353.214 26.0095C353.539 25.4046 355.312 22.4558 355.789 21.7376ZM362.387 52.0189C362.653 52.2835 362.844 52.4159 363.111 52.4159C363.378 52.4159 363.57 52.2835 363.836 52.1512C364.027 52.0189 364.294 51.8866 364.504 51.6976C365.228 51.1683 366.086 50.7903 366.944 50.3933C373.81 47.0665 380.331 42.9458 386.605 38.5605C392.079 34.7612 398.486 30.1301 402.243 26.7277C403.102 25.9338 403.692 25.3479 404.017 24.9698C404.607 24.2516 404.475 23.9302 404.15 23.2119L402.11 19.0345C401.919 18.4486 401.518 18.4486 401.195 18.7699C399.935 19.9418 397.704 21.9833 397.113 22.4936C395.474 23.8735 387.35 30.2057 384.851 31.8502C380.503 34.7234 376.002 37.5398 371.388 40.016C368.222 41.6416 365.056 43.3428 361.567 44.3257L358.802 44.9873C358.343 45.1196 358.211 45.3086 358.477 45.8379C358.534 46.1025 358.745 46.4239 359.145 47.0098C360.194 48.8055 361.853 51.225 362.387 52.0189ZM372.207 18.6565C372.799 19.1101 372.933 19.0534 373.256 18.5998C373.58 18.0705 375.964 14.6681 375.964 14.6681C376.365 14.0822 376.555 13.8175 376.232 13.3639C376.04 13.0425 375.564 12.7023 374.706 12.0596C373.657 11.2657 372.207 10.434 370.739 9.69684C368.432 8.5249 366.258 7.54199 365.667 7.40967C365.343 7.35297 365.266 7.35297 364.809 7.73101C364.408 8.18466 362.234 11.0578 361.967 11.5304C361.643 12.1163 361.567 12.3243 362.101 12.57C362.634 12.8346 365.075 14.1389 368.108 16.0291C368.776 16.5016 371.541 18.2028 372.207 18.6565Z" fill="#EF3B2C"/>
<path d="M419.578 9.56453C419.902 9.2999 420.245 9.24319 420.836 9.43221C421.161 9.62123 421.618 9.82916 422.228 10.2261C423.621 11.02 428.502 14.7437 429.875 16.4449C430.275 16.8986 430.275 17.2388 429.818 17.7492C429.417 18.0705 428.827 18.7321 427.778 19.7717L426.252 21.2839C425.718 21.8699 425.394 21.9455 424.86 21.4729C424.135 20.8113 423.144 19.715 420.779 17.7492C418.471 15.859 416.946 14.9328 416.164 14.4224C415.44 13.8931 415.497 13.6285 416.107 12.9102C416.736 12.1163 418.72 10.2261 419.578 9.56453ZM419.177 49.0702C419.444 49.5238 419.635 49.9775 420.226 49.9775C420.76 49.9208 421.274 49.5805 421.751 49.3159C423.868 48.2007 426.042 47.161 428.159 46.1025C429.475 45.4409 430.79 44.7227 432.126 44.0044C436.817 41.4526 441.221 38.4471 445.379 35.1203C449.803 31.5856 453.961 27.8052 457.775 23.6845C458.899 22.5125 459.491 21.7187 459.815 21.2083C460.272 20.49 460.215 19.904 459.949 19.1101C459.625 18.1272 458.499 15.2541 458.099 14.4035C457.908 14.0065 457.507 14.1389 457.317 14.4035C456.916 14.9328 456.058 15.9724 454.609 17.6736C452.569 20.0931 450.394 22.3235 448.087 24.5351C441.813 30.4137 434.967 35.0069 427.244 38.3337L424.937 39.3166C422.172 40.4319 419.273 41.4148 416.431 42.1898C416.164 42.3221 415.974 42.3788 416.24 42.9836C417.079 44.8172 418.319 47.4257 419.177 49.0702Z" fill="#EF3B2C"/>
<path d="M469.388 28.996C470.19 28.41 473.088 26.3119 474.213 25.1967C476.12 23.4388 477.912 21.4729 479.495 19.3181C481.402 16.7663 483.119 14.0822 484.644 11.2657C485.446 9.82915 486.17 8.31698 486.895 6.74809C487.619 5.31152 488.211 4.00727 488.611 3.15667C488.877 2.49509 489.279 2.70302 489.869 3.02436C492.501 4.32861 494.294 5.44384 494.942 5.89749C495.343 6.21883 495.209 6.61578 494.942 7.01272C493.817 8.90295 492.691 10.8121 491.833 12.8346C491.51 13.4962 491.567 13.4962 492.234 13.5529C492.902 13.6096 498.508 13.6852 500.415 13.6852C501.864 13.7419 503.256 13.7419 503.982 13.6852C504.382 13.6852 504.706 13.7419 505.03 13.5529C505.163 13.4962 505.297 13.4206 505.431 13.2883L506.689 12.381C506.823 12.3242 507.089 12.3242 507.223 12.381C508.863 13.2883 511.38 15.9724 512.105 16.823C512.429 17.1443 512.429 17.4846 512.162 17.8059C511.704 18.3919 511.246 18.8455 510.58 19.8284C510.179 20.49 506.289 28.1265 504.382 31.0752C501.159 36.2356 497.116 41.0745 492.635 45.2708C489.603 48.144 486.227 50.8281 482.604 53.1152C480.353 54.5518 479.248 55.1378 478.523 55.3457C477.798 55.5347 477.264 55.1567 476.749 54.7597C475.834 53.9658 474.499 52.7372 474.117 52.397C473.793 52.2079 473.393 51.8677 473.069 51.6787C472.478 51.2817 472.669 51.0171 473.127 50.6958C474.766 49.7128 480.182 46.6507 482.49 45.0062C485.922 42.5867 491.719 37.4264 495.686 32.0015C499.843 26.4442 501.56 22.5125 501.883 20.8113C502.15 19.7717 502.017 19.6394 500.892 19.6394H488.954C488.287 19.6394 488.039 19.5827 487.562 20.1687C487.238 20.6223 486.895 21.076 486.036 22.1345C483.92 24.743 481.613 27.2948 479.171 29.6576C477.588 31.2265 476.062 32.6063 475.147 33.06C474.823 33.249 474.557 33.249 474.232 33.06L470.609 30.5838L469.426 29.7332C468.93 29.3173 469.064 29.2606 469.388 28.996ZM507.452 9.3755L510.751 12.3242C511.208 12.7212 511.476 12.7779 511.876 12.4566L513.517 11.0767C513.84 10.7554 514.107 10.5474 514.317 10.3584C514.641 10.0938 514.717 9.82915 514.317 9.31879C513.993 8.78953 513.402 8.07125 512.01 6.89931C510.693 5.72737 509.893 5.19811 509.378 4.93348C508.92 4.66885 508.787 4.66885 508.329 4.93348C507.928 5.19811 506.422 6.31334 505.889 6.767C505.354 7.16394 505.297 7.35296 505.564 7.6176C505.812 7.80662 506.917 8.78953 507.452 9.3755ZM513.134 4.08288C514.584 5.38713 515.575 6.50236 516.167 7.22065C516.625 7.80662 516.835 7.6743 517.216 7.48528C518.131 7.03163 519.657 5.51945 519.79 5.33043C519.924 5.14141 520.115 4.93348 519.924 4.53653C519.657 4.00727 519.199 3.28899 517.75 1.98473C516.701 1.00182 515.309 0.283534 514.641 0.0189033C514.317 -0.0378033 514.183 0.0189033 513.917 0.207926C513.783 0.264632 512.01 1.96583 511.533 2.43839C511.266 2.62741 511.266 2.83533 511.59 3.09997C511.933 3.28899 512.734 3.74264 513.134 4.08288Z" fill="#EF3B2C"/>
<path d="M0.152648 100.163L0.724747 100.012C2.09778 99.6903 3.3564 99.2177 4.61503 98.5373C6.19783 97.7056 7.70436 96.6281 8.77228 95.1727C8.98204 94.8891 9.15367 94.6056 9.22995 94.3977C9.28716 94.2465 9.22995 94.1519 9.09646 94.0574C8.61972 93.6605 6.9797 92.9611 6.23597 92.5642C5.89271 92.394 5.91178 92.3184 6.06434 92.1105C6.19783 91.9026 7.18947 90.863 7.18947 90.8441C7.28482 90.7684 7.39924 90.7684 7.49459 90.7873L8.04762 90.9953C8.92484 91.2977 9.80205 91.6379 10.6793 92.016C10.9653 92.1483 11.0225 92.1105 11.1751 91.8081C11.7091 90.8441 12.51 88.538 12.5862 88.2545C12.6626 87.9331 12.6435 87.8764 12.51 87.8764C12.3574 87.8575 8.46716 87.8575 7.62808 87.8764C7.41831 87.8764 7.38017 87.9331 7.28482 88.0843C6.82714 88.7081 5.77829 90.1447 5.0155 90.9764C4.00478 92.0538 2.93686 93.0367 2.47918 93.3391C2.34569 93.4337 2.25034 93.4148 2.09778 93.3581C1.60196 93.1312 0.381487 92.5075 0.114508 92.2806C-0.038052 92.1861 -0.0571219 92.0727 0.0572979 91.9593C0.381487 91.619 1.71638 90.7685 3.69966 88.2167C4.34804 87.385 5.20619 85.9673 5.89271 84.3606C6.19783 83.6423 6.46481 82.9429 6.65551 82.1868C6.71272 81.8844 6.73179 81.8088 7.07505 81.8655L7.53273 81.9978C7.81878 82.0734 9.1346 82.546 9.59228 82.8673C9.80205 83.0185 9.76391 83.1509 9.66856 83.3399C9.61135 83.4911 9.516 83.7179 9.34437 84.0582L8.73414 85.3624C8.65786 85.5325 8.67693 85.5892 9.03925 85.6081C9.34437 85.6081 11.8807 85.5514 12.7007 85.5325C12.8533 85.5136 12.9486 85.5136 13.044 85.4002C13.1965 85.2301 13.4444 84.9088 13.5779 84.8331C13.8068 84.6819 14.0547 84.5307 16.0379 86.3831C16.6482 86.9502 16.1905 86.988 15.7328 87.6874C15.6565 87.7819 15.5612 87.9709 15.4467 88.2167C15.1035 89.1807 14.4742 90.7306 14.2644 91.2221C14.0356 91.7703 13.5016 92.8855 13.33 93.2446C13.2347 93.4526 13.33 93.4904 13.4826 93.5849L14.97 94.7379C15.1417 94.908 15.2751 94.9836 15.1417 95.2294C15.0082 95.4751 13.7495 97.0818 13.5397 97.2519C13.4063 97.3464 13.33 97.3464 13.1583 97.1763C13.1393 97.1574 12.2812 96.2501 11.7663 96.0233C11.5946 95.9477 11.5946 96.0044 11.4802 96.1178L11.1751 96.4958C10.0881 97.8379 8.73414 98.9531 7.30389 99.936C4.93922 101.505 3.01314 102.129 2.82244 102.204C1.54475 102.658 1.62103 102.601 0.915447 101.713C0.343347 101.013 0.0763679 100.673 -0.0189819 100.446C-0.0189819 100.276 -0.0189819 100.201 0.152648 100.163Z" fill="#EF3B2C"/>
<path d="M22.3691 91.8837L22.7123 91.7325C24.9435 90.7874 26.984 89.691 28.9482 88.2923C29.6538 87.763 30.3212 87.2148 30.9887 86.6478C32.5715 85.2301 34.1543 83.7557 35.4129 82.0167C35.5845 81.7332 35.7562 81.4875 35.9088 81.2228C36.0041 81.0527 36.1376 81.0905 36.3664 81.2228C37.0148 81.6387 37.9683 82.3381 38.712 82.9618C38.8836 83.0942 39.0171 83.2832 38.7883 83.4344C38.159 83.907 37.5487 84.4362 36.9576 84.9844C35.0506 86.7612 33.8492 87.8008 33.3916 88.1978C33.1817 88.3679 33.1817 88.5002 33.1817 88.7459C33.1817 88.8782 33.2009 94.3788 33.2009 97.1196C33.2009 99.0665 33.258 100.617 33.5059 101.996C33.5631 102.28 33.5631 102.469 33.258 102.563C33.0101 102.639 31.1222 102.715 30.3404 102.62C30.0543 102.601 30.0352 102.45 30.0924 102.204C30.1497 101.864 30.245 101.165 30.3021 100.635C30.4357 99.3879 30.4357 98.0458 30.4547 96.7794C30.4738 92.4886 30.4738 91.1654 30.4547 90.8819C30.4547 90.6361 30.3785 90.5983 30.245 90.7117C30.0924 90.7874 29.7683 91.0142 29.3486 91.2788C28.0137 92.1483 26.2784 93.1879 24.8291 94.0007C24.3523 94.2465 24.1235 94.2465 23.8565 94.0196C23.6086 93.8495 22.4072 92.5075 22.2928 92.3751C22.0639 92.1105 22.0639 92.016 22.3691 91.8837Z" fill="#EF3B2C"/>
<path d="M43.6512 96.7415C43.7084 96.6848 43.8991 96.5714 44.1279 96.4202C45.6154 95.494 46.9122 94.2843 47.9419 92.9044C48.1707 92.602 48.2471 92.4129 48.5904 92.6398C49.048 92.9422 50.0205 93.6416 50.1541 93.7928C50.2494 93.9251 50.3066 94.0007 50.1541 94.2465C50.0205 94.4544 49.8298 94.719 49.4484 95.1916C49.1052 95.6074 46.9884 98.0269 45.9014 98.4049C45.6726 98.4994 45.6154 98.5373 45.4438 98.3482C45.2721 98.1781 44.5474 97.6678 44.414 97.5732C44.166 97.4031 43.9372 97.2519 43.7084 97.1196C43.5558 96.9873 43.4986 96.8739 43.6512 96.7415ZM45.6916 90.8252C46.4544 90.7684 47.694 90.7495 48.0754 90.7306L51.3173 90.6739C51.6415 90.6739 51.9466 90.6739 52.1564 90.6928C52.4615 90.6928 52.4996 90.7873 52.5378 91.0898C52.595 91.8648 52.6332 94.0763 52.6332 95.7397C52.6332 96.1934 52.6903 97.0062 52.4806 97.5543C52.3471 97.8568 52.1564 98.008 51.794 98.1025C51.489 98.197 51.1457 98.197 50.8215 98.197C50.4401 98.197 49.7727 98.1403 49.6391 98.1403C49.5056 98.1214 49.4294 98.197 49.4866 98.386C49.5438 98.5184 49.6201 98.7641 49.7345 99.0098C50.0777 99.8415 50.3066 100.276 50.4591 100.522C50.6117 100.749 50.7452 100.843 51.0122 100.862C51.3554 100.881 51.775 100.881 52.1754 100.862C52.9764 100.862 53.8155 100.73 54.3876 100.314C55.0932 99.8226 55.2266 98.9909 55.2266 98.0269C55.2266 97.611 55.1694 93.2635 55.1694 91.8459V91.0142C55.1694 90.6739 55.1885 90.6361 55.5127 90.6361L58.602 90.655C59.3648 90.655 60.4328 90.7117 61.0239 90.7873C61.596 90.863 61.9584 90.9197 62.1491 90.9575C62.5305 91.0331 62.5305 90.9764 62.5495 90.5416C62.6067 90.2014 62.5686 88.6325 62.5495 88.0465C62.5305 87.8197 62.4732 87.7441 62.2253 87.763C60.9858 87.9898 59.8416 88.0654 58.5067 88.1032C57.7057 88.1221 55.9513 88.1032 55.608 88.1032C55.2839 88.1032 55.2266 88.1032 55.2266 87.8575C55.2266 87.6118 55.2266 86.7423 55.303 85.8728C55.3792 85.1734 55.4555 84.7008 55.5318 84.3039C55.608 83.9069 55.5508 83.8502 55.322 83.7746C55.0932 83.699 54.9216 83.6801 54.5402 83.6234C54.235 83.6045 52.881 83.4722 52.4996 83.4911C52.3471 83.4911 52.2899 83.5478 52.2708 83.6423C52.2708 83.7179 52.2899 83.7935 52.2899 83.888C52.3089 84.0393 52.3089 84.2094 52.3089 84.3606C52.3661 85.2301 52.4425 86.6856 52.4043 87.4984C52.4043 87.7441 52.4234 87.9142 52.3089 87.9898C52.1754 88.0654 51.9085 88.0843 51.4126 88.0843C50.4019 88.0843 48.9908 88.0276 47.8084 87.9142C46.8741 87.8386 46.3019 87.7441 45.6154 87.6307C45.234 87.5551 45.1195 87.5362 45.0814 87.9331C45.0624 88.1788 45.0814 89.1807 45.1386 89.7855C45.1577 90.0313 45.1577 90.2392 45.1959 90.3904C45.2912 90.7874 45.3675 90.8441 45.6916 90.8252ZM59.7462 96.6281C60.2421 97.1763 61.024 98.2537 61.1575 98.5184C61.31 98.7641 61.3863 98.7452 61.5579 98.6507C61.6532 98.5751 63.1407 97.2519 63.2933 97.0818C63.4459 96.9117 63.5793 96.7982 63.3123 96.458C63.0645 96.08 62.2825 95.3617 62.2825 95.3617C61.7104 94.7379 60.7569 93.8684 59.9751 93.2635C59.67 93.0367 59.403 92.8666 59.1932 92.7343C58.9834 92.6587 58.8691 92.6398 58.6974 92.7532C58.4113 92.9044 57.9918 93.2446 57.4197 93.7739C57.3625 93.8306 57.2862 93.8684 57.2671 93.9251C57.1718 94.0763 57.2862 94.1708 57.4197 94.3032C58.2016 95.0592 58.9834 95.8153 59.7462 96.6281ZM59.5555 85.3435C59.7843 85.6838 60.1086 85.9673 60.49 86.1374C61.024 86.3831 61.6532 86.4209 62.2253 86.2886C63.3314 86.0051 64.1704 84.9277 64.1704 83.7935C64.1514 83.2265 63.9416 82.6216 63.5412 82.149C62.9691 81.5064 62.13 81.2606 61.4053 81.374C60.3947 81.5064 59.4984 82.1679 59.1932 83.1509C59.0598 83.5478 59.0406 83.9826 59.117 84.3795C59.1932 84.7197 59.3458 85.06 59.5555 85.3435ZM61.1956 82.735C61.6913 82.5082 62.397 82.7539 62.6448 83.2643C62.7402 83.4722 62.7784 83.6801 62.7402 83.888C62.6831 84.4929 62.3207 84.9277 61.6913 84.9655C61.2337 84.9655 60.7951 84.7386 60.5662 84.3606C60.3374 83.9447 60.4137 83.4722 60.6997 83.1131C60.8142 82.9618 60.9858 82.8106 61.1956 82.735Z" fill="#EF3B2C"/>
<path d="M70.8068 92.1861C71.1119 91.9593 72.218 91.1654 72.6375 90.7496C73.3622 90.0691 74.0487 89.3319 74.6398 88.5002C75.3645 87.5362 76.032 86.5155 76.6041 85.438C76.9092 84.8899 77.1762 84.3228 77.4622 83.7179C77.7483 83.1698 77.9581 82.6783 78.1106 82.3381C78.2059 82.0923 78.3585 82.1679 78.5873 82.2814C79.5981 82.7728 80.2655 83.2076 80.5325 83.3777C80.685 83.51 80.6279 83.6423 80.5325 83.7935C80.1129 84.5118 79.6744 85.2301 79.3501 86.0051C79.2167 86.2508 79.2548 86.2508 79.5027 86.2886C79.7506 86.3075 81.8865 86.3453 82.6111 86.3453C83.1641 86.3642 83.6981 86.3642 83.965 86.3453C84.1176 86.3453 84.2511 86.3642 84.3656 86.2886C84.4228 86.2697 84.4609 86.2319 84.5181 86.1941L84.9949 85.8539C85.0521 85.835 85.1475 85.835 85.2046 85.8539C85.8339 86.1941 86.7874 87.2148 87.0735 87.5551C87.2069 87.6874 87.207 87.8008 87.0926 87.9331C86.9209 88.1599 86.7493 88.3301 86.4824 88.7081C86.3298 88.9538 84.8423 91.8648 84.1176 92.9989C82.8781 94.9647 81.3525 96.8172 79.6362 98.4049C78.473 99.5013 77.1953 100.522 75.8223 101.392C74.9641 101.94 74.5445 102.166 74.2585 102.242C73.9724 102.318 73.7817 102.166 73.572 102.015C73.2287 101.713 72.7138 101.24 72.5613 101.127C72.4278 101.051 72.2752 100.919 72.1607 100.843C71.9319 100.692 72.0083 100.598 72.1799 100.465C72.8092 100.087 74.8688 98.9153 75.7459 98.2915C77.0618 97.3653 79.2739 95.3995 80.7804 93.3392C82.3632 91.2221 83.0116 89.7288 83.1451 89.0862C83.2405 88.6892 83.2022 88.6325 82.7637 88.6325H78.2059C77.9581 88.6325 77.8627 88.6136 77.672 88.8404C77.5385 89.0105 77.4241 89.1807 77.0999 89.5965C76.299 90.5983 75.4218 91.5623 74.4874 92.4697C73.877 93.0745 73.3049 93.5849 72.9618 93.7739C72.8282 93.8495 72.7328 93.8495 72.6185 93.7739L71.2455 92.8288L70.7877 92.5075C70.6352 92.3184 70.6924 92.2806 70.8068 92.1861ZM85.3191 84.7197L86.5777 85.835C86.7493 85.9862 86.8447 86.0051 86.9972 85.8917L87.6266 85.3624C87.76 85.2301 87.8554 85.1545 87.9316 85.0789C88.0651 84.9844 88.0842 84.871 87.9316 84.6819C87.7982 84.474 87.5884 84.2094 87.0545 83.7557C86.5586 83.3021 86.2535 83.1131 86.0437 82.9996C85.8721 82.9051 85.8149 82.9051 85.6432 82.9996C85.4907 83.0942 84.9185 83.5289 84.7088 83.699C84.499 83.8502 84.48 83.9258 84.5754 84.0204C84.6897 84.1149 85.1092 84.4929 85.3191 84.7197ZM87.474 82.6972C88.027 83.1887 88.4084 83.6234 88.6372 83.888C88.8089 84.1149 88.8851 84.0582 89.0377 83.9826C89.381 83.8124 89.9721 83.2265 90.0102 83.1509C90.0674 83.0752 90.1438 82.9996 90.0674 82.8484C89.9721 82.6405 89.8005 82.3759 89.2474 81.8844C88.847 81.5064 88.313 81.2417 88.0651 81.1283C87.9316 81.1094 87.8935 81.1283 87.779 81.2039C87.7219 81.2228 87.0545 81.8844 86.8828 82.0545C86.7874 82.1301 86.7874 82.2057 86.9019 82.3003C87.0354 82.3948 87.3214 82.5649 87.474 82.6972Z" fill="#EF3B2C"/>
<path d="M95.6741 88.727C95.6741 88.4057 95.6931 88.3112 96.0936 88.3301C98.0959 88.4624 100.117 88.4624 102.12 88.4624C104.637 88.4624 108.508 88.2356 108.508 88.2356C108.832 88.2167 109.214 88.2167 109.538 88.1032L110.377 87.6496C110.606 87.4984 110.72 87.4984 110.949 87.6307C111.197 87.763 111.579 88.0276 112.207 88.5947C112.437 88.7648 112.59 88.916 112.703 89.0105C112.875 89.1807 112.875 89.313 112.78 89.5587C112.684 89.7855 112.532 90.088 112.284 90.5605C109.976 95.1538 108.031 97.2708 106.505 98.4995C104.675 99.936 102.482 101.165 100.232 101.77C99.9266 101.845 99.6788 101.902 99.5071 101.921C99.2783 101.94 99.1638 101.94 98.9541 101.713C98.7824 101.486 98.401 101.089 98.115 100.824L97.7145 100.446C97.3713 100.144 97.314 100.031 97.8099 99.8982C98.4392 99.747 100.194 99.1799 101.185 98.7074C102.025 98.3293 103.016 97.7623 104.255 96.8172C105.934 95.5129 107.192 94.2843 108.508 92.016C108.661 91.7703 108.908 91.2221 109.061 90.9197C109.157 90.7117 109.214 90.5983 108.927 90.5983H107.878C105.381 90.5983 102.902 90.7306 100.442 90.8441C99.4117 90.9008 98.401 90.9386 97.3904 91.0898C96.9708 91.1465 96.5894 91.2221 96.1508 91.3166C95.9219 91.3733 95.8266 91.3166 95.8075 91.0709C95.7884 90.9386 95.7503 90.5038 95.7312 90.0502L95.6741 88.727ZM98.2866 82.7728C97.9815 82.7161 97.9052 82.7728 97.9052 83.0185C97.8861 83.4911 97.848 84.9277 97.8861 85.1545C97.8861 85.438 97.9434 85.4569 98.3057 85.438C98.5346 85.4191 98.8587 85.3435 99.3545 85.3057C100.156 85.2301 102.272 85.1356 104.236 85.1356C105.915 85.1356 107.097 85.1545 107.859 85.1923C108.489 85.2112 109.195 85.2679 109.824 85.3246C110.281 85.3813 110.243 85.3435 110.281 85.0222V83.0564C110.281 82.7539 110.206 82.7161 109.957 82.735C109.099 82.8673 108.355 82.9051 107.593 82.9429C106.429 82.9996 105.305 83.0375 104.141 83.0185C102.863 83.0185 101.548 83.0753 100.251 82.9996C99.6215 82.924 98.916 82.8862 98.2866 82.7728Z" fill="#EF3B2C"/>
<path d="M121.114 87.3094C121.133 87.0636 121.171 86.5911 121.171 86.1185C121.171 85.7027 121.189 85.249 121.171 84.7954C121.152 84.5874 121.171 84.474 121.399 84.4929C121.495 84.5118 121.629 84.5496 121.8 84.5685C123.211 84.7386 124.641 84.7197 126.052 84.7197C128.017 84.7008 131.03 84.6252 132.154 84.5874C132.937 84.5685 133.757 84.5307 134.157 84.5118C134.31 84.4929 134.329 84.4929 134.482 84.4362C134.653 84.3417 134.787 84.285 134.901 84.2283C135.053 84.1527 135.187 84.1338 135.359 84.2094C135.606 84.3417 135.968 84.6252 136.675 85.2868C136.903 85.4947 137.056 85.6271 137.132 85.7594C137.304 85.9673 137.304 86.0807 137.189 86.2508C137.113 86.3831 137.018 86.4966 136.847 86.7234C136.751 86.8935 136.636 87.1203 136.56 87.4228C136.503 87.5929 136.255 88.3868 135.988 89.2185C135.359 91.2599 134.405 93.2069 133.071 94.8703C131.888 96.3635 130.439 97.5166 128.798 98.4239C127.559 99.1233 126.243 99.6714 124.928 100.201L124.355 100.428C124.145 100.484 124.032 100.446 123.86 100.295C123.707 100.144 123.459 99.955 123.021 99.5958C122.372 99.0666 121.914 98.7263 121.742 98.594C121.514 98.4239 121.514 98.2916 121.819 98.2159C122.125 98.1403 123.096 97.8946 124.336 97.441C125.424 97.044 126.396 96.5904 127.292 96.0989C129.981 94.5867 131.811 92.5453 132.975 89.899C133.299 89.1429 133.661 87.9331 133.738 87.4039C133.795 87.1203 133.718 87.0258 133.356 87.0258C132.46 87.0447 127.616 87.1203 127.616 87.1203C127.14 87.177 123.592 87.2715 122.296 87.4039C121.953 87.4606 121.685 87.4795 121.495 87.5362C121.227 87.5929 121.095 87.5929 121.114 87.3094Z" fill="#EF3B2C"/>
<path d="M144.283 93.2824C146.267 92.2806 148.021 90.9953 149.642 89.4453C150.405 88.6892 151.092 87.8953 151.797 87.1014C152.045 86.7801 152.655 86.0051 152.693 85.9484C152.788 85.8539 152.865 85.8161 153.093 85.9484C153.246 86.0429 153.475 86.1941 153.818 86.4776C154.448 86.9502 154.791 87.2337 154.981 87.3661C155.21 87.5929 155.134 87.6685 154.906 87.8386C154.81 87.9142 154.676 88.0087 154.562 88.0843C154.352 88.2356 154.18 88.3868 154.028 88.538C153.685 88.8404 153.151 89.3319 153.151 89.3319L150.709 91.5245C150.5 91.6947 150.481 91.7514 150.481 92.016L150.5 93.755C150.5 95.305 150.5 98.7641 150.634 100.39C150.69 101.316 150.729 101.883 150.786 102.242C150.843 102.79 150.805 102.885 150.462 102.923C149.985 102.941 148.555 102.979 148.021 102.979C147.735 102.998 147.697 102.904 147.735 102.639C147.944 101.618 148.059 100.673 148.116 99.6714C148.174 98.6696 148.136 97.6489 148.136 96.6281C148.155 95.7586 148.155 95.1538 148.078 94.1708C148.059 93.8495 148.021 93.7172 147.697 93.8873C147.163 94.1708 146.095 94.9269 144.379 95.7964C143.979 96.0044 143.692 96.1178 143.502 96.1745C143.273 96.2312 143.101 96.1556 142.93 96.0044C142.605 95.683 141.823 94.8891 141.728 94.7379C141.595 94.5678 141.595 94.4922 141.804 94.4166C141.995 94.3221 143.577 93.6227 144.283 93.2824Z" fill="#EF3B2C"/>
<path d="M164.612 86.988C164.822 86.0996 165.012 84.7953 165.031 84.3984C165.088 84.0015 165.088 83.8691 165.05 83.6045C165.05 83.3966 165.127 83.321 165.394 83.3588C165.946 83.4155 166.9 83.6045 167.549 83.9069C167.778 84.0015 168.083 84.1527 168.255 84.3795C168.464 84.6819 168.255 84.9466 168.102 85.2301C166.995 87.2904 166.367 89.8233 166.157 92.1294C166.099 92.9611 166.08 93.7928 166.176 94.5678C166.329 95.7208 166.633 96.3068 166.882 96.5525C167.11 96.7983 167.167 96.7604 167.434 96.5525C167.587 96.458 168.083 96.0233 168.368 95.8531C168.521 95.7586 168.617 95.7775 168.674 95.8531C168.731 95.9099 168.731 96.0611 168.674 96.2501C168.502 96.8172 168.368 97.4409 168.274 98.1592C168.216 98.5751 168.216 99.0098 168.293 99.3312C168.312 99.5391 168.445 99.747 168.445 99.8793C168.464 100.012 168.368 100.125 168.121 100.295C167.835 100.446 166.767 100.919 166.329 101.07C166.176 101.127 166.042 101.089 165.928 100.976C165.775 100.843 165.584 100.654 165.356 100.257C165.222 100.049 165.127 99.8415 164.975 99.558C164.364 98.3104 163.868 96.8361 163.696 95.4562C163.563 94.4544 163.563 93.4337 163.677 92.4507C163.868 90.5983 164.269 88.7648 164.612 86.988ZM170.981 98.386C171.324 98.6885 171.706 98.9153 172.107 99.1043C173.613 99.8037 175.5 99.8982 177.141 99.8982C178.114 99.8982 179.105 99.8226 180.001 99.6525C180.764 99.5202 181.127 99.4068 181.317 99.3123C181.47 99.2177 181.489 99.161 181.527 98.8964V96.5714C181.508 96.2879 181.374 96.2501 180.955 96.3446C180.536 96.4391 179.868 96.6281 178.724 96.7983C177.961 96.8928 177.236 96.9495 176.53 96.9684C175.425 96.9684 174.242 96.9495 173.193 96.6281C172.545 96.4202 172.03 96.0989 171.667 95.5507C171.496 95.305 171.363 95.3428 171.134 95.494C171.039 95.5696 170.333 96.0233 170.009 96.2879C169.875 96.3824 169.856 96.5336 169.875 96.6848C169.894 97.1196 170.237 97.8001 170.981 98.386ZM171.535 86.5343C171.554 87.2148 171.63 87.385 172.182 87.5551C172.793 87.763 174.452 88.0465 176.264 88.1032C177.275 88.1032 178.324 88.0465 179.295 87.8575C179.62 87.8008 179.829 87.763 179.944 87.7063C180.116 87.6496 180.154 87.6118 180.173 87.3093C180.193 86.9313 180.249 85.6459 180.249 85.249C180.249 84.9277 180.154 84.871 179.849 84.9277C179.239 85.0222 178.094 85.2112 177.388 85.249C176.454 85.3435 175.444 85.3813 174.528 85.3057C173.174 85.2112 172.144 84.9088 171.82 84.8142C171.592 84.7386 171.535 84.8142 171.535 84.9844C171.496 85.0789 171.535 86.1374 171.535 86.5343Z" fill="#EF3B2C"/>
<path d="M188.487 95.8531C188.659 95.872 188.945 95.9288 189.345 95.8531C189.594 95.7964 189.841 95.683 190.071 95.5507C190.756 95.1727 192.035 94.2843 192.378 94.0574C192.778 93.8117 193.007 93.6605 193.178 93.5282C193.35 93.377 193.465 93.3202 193.503 93.0367V92.6209C193.503 92.1483 193.503 90.6361 193.503 90.2581V90.0124C193.446 89.8611 193.35 89.8422 193.217 89.8611L192.34 89.9935C191.958 90.0502 191.329 90.2014 190.986 90.277C190.833 90.2959 190.681 90.3526 190.528 90.3337C190.318 90.277 190.28 90.1258 190.204 89.9935C190.071 89.6721 189.918 89.2185 189.784 88.7648C189.651 88.4246 189.556 88.141 189.498 87.9709C189.441 87.6874 189.422 87.5173 189.747 87.5173C190.166 87.5362 190.605 87.5173 191.024 87.4984C191.501 87.4795 191.978 87.4039 192.454 87.3282C192.74 87.3093 192.988 87.2526 193.255 87.1959C193.331 87.177 193.408 87.177 193.484 87.1392C193.693 87.0825 193.713 86.988 193.713 86.799C193.713 86.4777 193.713 85.5325 193.693 84.9466C193.674 84.474 193.674 83.9448 193.561 83.4722C193.484 83.0942 193.542 83.0185 193.846 83.0753C194.628 83.1698 195.41 83.2454 196.268 83.4722C196.42 83.4911 196.573 83.5667 196.669 83.699C196.802 83.8502 196.745 83.9826 196.688 84.1527C196.554 84.4929 196.516 84.7954 196.439 85.1545C196.383 85.3057 196.364 85.4758 196.364 85.6838C196.345 85.9106 196.307 86.1563 196.345 86.402C196.345 86.4777 196.402 86.4966 196.554 86.4966C196.63 86.4777 196.707 86.4398 196.841 86.4209C197.164 86.3264 198.003 86.0996 198.194 86.024C198.404 85.9673 198.442 86.0051 198.48 86.2697C198.499 86.5533 198.576 87.5929 198.614 88.2356C198.633 88.4813 198.614 88.6325 198.365 88.727C198.29 88.7837 198.194 88.8026 198.042 88.8593C197.469 89.0673 196.86 89.1807 196.287 89.3319C196.058 89.3886 196.001 89.4642 196.001 89.6721C195.982 89.8422 195.944 90.3904 195.925 90.863C195.925 91.241 195.944 91.7514 195.944 91.9593C195.944 92.1294 196.001 92.1294 196.154 92.0538C196.364 91.9782 196.611 91.9215 197.088 91.7514C198.537 91.2221 200.14 90.7496 201.722 90.9575C203.038 91.1654 204.411 91.8081 205.174 92.9233C206.261 94.4733 206.146 96.6281 204.754 97.9513C203.591 99.0665 201.913 99.5013 200.349 99.5013C199.663 99.5013 198.919 99.4257 198.518 99.2555C198.271 99.1232 198.214 98.972 198.175 98.7263C198.137 98.4805 197.965 97.4976 197.946 97.1763C197.927 96.8739 198.022 96.8361 198.423 96.8928C198.595 96.9117 198.767 96.9684 199.033 96.9873C201.245 97.2708 202.351 96.7605 202.809 96.1556C203.267 95.5507 203.133 94.6434 202.675 94.0574C202.37 93.6794 201.817 93.3581 200.959 93.2635C199.224 93.0367 197.107 93.8117 196.383 94.2843C196.287 94.3599 196.211 94.4355 196.173 94.53C196.154 94.6245 196.154 94.7568 196.154 94.9269C196.154 95.2483 196.173 95.7208 196.211 96.2312C196.268 97.3086 196.383 98.3482 196.611 99.3879C196.63 99.5958 196.688 99.7848 196.745 99.9927C196.916 100.56 196.916 100.616 196.477 100.749C196.154 100.843 195.066 101.032 194.59 101.07C194.266 101.127 194.132 101.127 194.037 100.787C193.904 100.465 193.655 99.8415 193.331 99.3123C193.007 98.783 192.454 98.0458 192.244 97.8379C192.035 97.6678 191.863 97.6867 191.635 97.9135C191.501 98.0458 190.756 98.783 190.433 99.0665C190.032 99.4446 189.651 98.9909 189.345 98.6885C188.411 97.7245 188.068 97.1196 188.011 96.7037C187.934 96.3635 188.03 95.8531 188.487 95.8531ZM192.816 97.3464C192.988 97.422 193.236 97.5543 193.427 97.5732C193.655 97.63 193.655 97.5543 193.655 97.3275L193.636 96.6281C193.617 96.4202 193.561 96.4013 193.408 96.4769C193.274 96.5525 192.874 96.855 192.644 97.0251C192.493 97.1196 192.435 97.1574 192.625 97.2519C192.663 97.2708 192.74 97.2897 192.816 97.3464ZM203.286 89.4264C204.182 90.0502 205.002 90.6739 205.478 91.0709C205.65 91.2221 205.803 91.2788 205.974 91.1276L206.527 90.5227C206.738 90.277 206.928 90.0313 207.081 89.7477C207.291 89.4075 207.253 89.2563 207.004 88.9727C206.623 88.5758 206.223 88.2734 205.765 87.9709C205.059 87.4417 204.392 86.9691 203.61 86.5911C203.362 86.4587 203.152 86.3831 203 86.3453C202.752 86.2697 202.6 86.3264 202.447 86.4776C202.16 86.7612 201.875 87.1203 201.589 87.5173C201.532 87.5929 201.379 87.763 201.302 87.9142C201.15 88.1599 201.302 88.2356 201.513 88.3301C201.989 88.5947 202.637 88.9916 203.286 89.4264Z" fill="#EF3B2C"/>
<path d="M214.27 86.2886C214.366 85.6649 214.366 85.06 214.289 84.4362C214.27 84.3039 214.27 84.1905 214.232 84.0582C214.155 83.6801 214.232 83.5667 214.461 83.5667C214.613 83.5667 214.804 83.5667 215.147 83.6234C215.377 83.6801 215.643 83.7179 215.93 83.7935C216.539 83.9258 217.207 84.096 217.493 84.2094C217.874 84.3795 217.874 84.4551 217.703 84.8332C217.493 85.249 217.284 85.8728 217.092 86.4776C216.33 88.6892 215.986 91.0142 216.005 93.3581C216.024 94.908 216.234 95.6452 216.387 95.9477C216.482 96.1745 216.654 96.2312 216.883 96.0989C216.959 96.0422 217.054 96.0044 217.169 95.891C217.303 95.7964 217.627 95.4373 217.855 95.1727C217.931 95.116 217.95 95.0782 218.008 95.0404C218.084 94.9647 218.161 94.9459 218.275 95.0215C218.427 95.0971 218.446 95.1727 218.408 95.3239C218.256 95.891 218.084 96.666 217.931 97.6678C217.837 98.2348 217.855 98.5184 217.989 99.0665C218.046 99.2745 218.141 99.5391 218.199 99.6903C218.218 99.7848 218.199 99.8604 218.122 99.8982C217.703 100.201 216.769 100.579 216.311 100.692C216.139 100.749 216.024 100.749 215.911 100.617C215.739 100.465 215.509 100.201 215.3 99.9171C214.404 98.6129 213.965 97.0062 213.717 95.4562C213.508 94.2654 213.47 93.0934 213.508 91.9215C213.564 90.0124 213.946 88.141 214.27 86.2886ZM221.326 89.9179C221.46 90.2203 221.555 90.4093 221.632 90.5416C221.707 90.6361 221.764 90.7118 221.841 90.7685C221.975 90.9008 222.126 90.863 222.26 90.863C223.099 90.8063 225.369 90.6361 225.502 90.6172C225.789 90.6172 225.846 90.6361 225.884 90.7874C225.903 90.9575 225.903 91.241 225.94 91.5623C225.94 92.791 225.96 93.9818 225.636 95.1727C225.35 96.2879 224.835 97.3086 224.053 98.2348C223.443 98.9531 222.298 99.9549 221.822 100.295C221.65 100.446 221.669 100.598 221.898 100.635C222.108 100.654 222.432 100.768 222.68 100.862C222.852 100.938 223.481 101.24 223.882 101.392C224.091 101.467 224.225 101.467 224.435 101.373C225.274 100.976 226.78 99.0854 227.066 98.5751C228.077 96.9306 228.343 95.6263 228.477 94.4166C228.573 93.6038 228.611 92.2995 228.611 91.9593V90.2959C228.63 90.2203 228.668 90.1447 228.82 90.1258C228.839 90.1069 230.403 89.8233 231.109 89.6721C231.28 89.6154 231.376 89.5398 231.452 89.4264C231.529 89.2941 231.529 89.1429 231.548 88.9727C231.548 88.8215 231.548 87.385 231.529 87.1959C231.51 86.9502 231.433 86.9124 231.242 86.9691L230.537 87.1203C230.06 87.2526 228.973 87.4606 228.573 87.5173C228.439 87.5173 228.42 87.4417 228.42 87.3472C228.42 87.1959 228.401 86.7801 228.401 86.5155C228.401 85.9106 228.382 85.2679 228.401 84.7386C228.42 84.4173 228.458 84.1716 228.496 83.8691C228.573 83.5856 228.554 83.5289 228.324 83.4722C228.23 83.4533 228.096 83.4155 227.905 83.3966C227.485 83.321 226.017 83.1509 225.483 83.0941C225.331 83.0941 225.102 83.0374 224.95 83.1509C224.797 83.2265 224.854 83.3966 224.873 83.5478L225.006 84.0015C225.331 85.4758 225.502 86.402 225.617 86.9691C225.636 87.2715 225.693 87.574 225.693 87.7441C225.712 87.952 225.712 88.0465 225.369 88.0843C224.835 88.141 223.958 88.1032 223.424 88.1032C222.622 88.1032 221.822 88.0276 221.002 87.952C220.773 87.9331 220.734 88.0087 220.734 88.1032C220.734 88.2356 220.792 88.4813 220.945 88.9538L221.326 89.9179Z" fill="#EF3B2C"/>
<path d="M238.336 94.8324C238.718 94.4922 241.636 91.4867 242.818 90.1069C243.58 89.2185 245.583 86.5722 245.602 86.5155C245.678 86.3642 245.659 86.2319 245.468 86.2886C244.153 86.61 242.799 86.8368 241.502 87.177C240.873 87.3472 240.873 87.3471 240.777 87.1014C240.53 86.6478 240.053 84.8899 240.053 84.4173C240.053 84.285 240.11 84.2661 240.225 84.285C240.358 84.285 240.568 84.3039 241.064 84.3606C242.475 84.4551 244.382 84.2283 245.697 84.0204C246.555 83.888 247.357 83.6423 248.177 83.3777C248.348 83.3021 248.482 83.3588 248.596 83.4722C248.692 83.5667 248.882 83.7746 249.169 84.1716C249.722 84.871 249.969 85.3246 250.065 85.5892C250.141 85.8728 250.084 85.9862 249.854 86.1563C249.531 86.402 248.92 86.8557 248.596 87.1203C247.967 87.7252 247.357 88.349 246.785 88.9916C246.555 89.2941 246.021 89.9178 246.002 89.9557C245.869 90.1258 245.869 90.1636 246.232 90.1258C247.338 90.0502 248.654 90.0313 249.797 90.4282C250.675 90.7306 251.533 91.3922 252.105 92.1294C252.487 92.602 252.734 93.2068 252.83 93.7739C253.04 95.0214 252.983 96.5336 251.953 98.2348C250.637 100.427 248.005 101.297 245.869 101.24C244.039 101.221 241.922 100.125 241.922 98.0269C241.922 97.3086 242.226 96.5903 242.818 96.0422C243.39 95.494 244.153 95.1727 244.973 95.2483C246.136 95.3428 247.09 96.0233 247.566 96.9495L247.947 97.6488C248.043 97.8568 248.119 97.9324 248.367 97.8568C248.768 97.7056 249.397 97.2519 249.722 96.5147C249.778 96.4202 250.065 95.6641 250.026 94.8135C249.95 93.8684 249.378 92.8288 247.413 92.4507C246.689 92.3184 245.049 92.4507 243.81 93.1501C242.952 93.6416 242.075 94.5111 241.426 95.3239C240.702 96.1745 240.11 96.9684 239.938 97.233C239.729 97.5354 239.557 97.4598 239.099 97.233C238.623 96.9873 237.231 96.0611 237.192 95.9855C237.097 95.8909 237.097 95.8153 237.212 95.7397C237.383 95.6263 237.955 95.1538 238.336 94.8324ZM244.553 98.4805C244.763 98.6129 245.011 98.6885 245.259 98.6885C245.506 98.6885 245.736 98.594 245.812 98.386C245.945 98.0836 245.678 97.819 245.412 97.6299C245.106 97.4598 244.687 97.3275 244.382 97.5732C244.038 97.8379 244.267 98.3104 244.553 98.4805Z" fill="#EF3B2C"/>
<path d="M270.012 81.5631C271.423 81.7899 272.091 81.8655 272.395 82.0356C272.643 82.168 272.624 82.4137 272.491 82.6405C272.357 82.8673 272.281 83.0942 272.281 83.3399C272.281 83.5856 272.3 83.9826 272.3 84.285C272.319 84.5118 272.319 84.5685 272.548 84.5685C272.758 84.5874 273.044 84.6253 273.234 84.6253C274.036 84.6253 275.428 84.6253 278.116 84.4929C279.298 84.474 281.377 84.2661 281.682 84.2094C282.007 84.1527 282.026 84.2283 282.007 84.4551C282.007 84.682 281.93 85.3813 281.93 85.7027C281.93 86.2508 281.93 86.4021 281.95 86.7801C282.007 87.1581 282.007 87.1581 281.626 87.1203C281.339 87.0636 280.824 86.988 280.119 86.9691C279.7 86.9502 278.994 86.9124 278.326 86.9124C278.097 86.9124 277.544 86.9124 277.278 86.9691C277.067 86.988 277.029 87.0447 276.972 87.2338L276.705 88.2356C275.999 90.8063 275.046 93.3203 273.33 95.4184C272.949 95.8721 272.777 95.9477 273.349 96.3824C274.531 97.3086 275.79 98.1781 277.163 98.8208C278.136 99.2745 279.223 99.5769 280.252 99.8982C280.805 100.068 281.339 100.22 281.892 100.295C281.988 100.314 282.026 100.446 281.892 100.598C281.607 100.938 280.443 102.034 280.233 102.374C280.081 102.601 280.004 102.79 279.68 102.677C278.898 102.393 278.097 102.053 277.335 101.732C275.428 100.881 273.596 99.8415 272.033 98.4617C271.652 98.1403 271.327 97.8568 271.27 97.8379C271.137 97.7812 271.042 97.7812 270.927 97.8946L270.05 98.594C268.047 100.182 265.606 101.335 263.165 102.148C262.537 102.356 261.926 102.545 261.564 102.639C261.22 102.734 261.087 102.734 260.915 102.412L260.534 101.713L259.809 100.673C259.409 100.201 259.351 100.144 259.733 100.125C259.828 100.125 260.019 100.125 260.21 100.106C260.439 100.087 260.687 100.049 261.011 100.012C263.567 99.5391 266.064 98.5751 268.105 96.9684C268.562 96.6282 268.924 96.2879 269.135 96.0989C269.306 95.9288 269.363 95.7965 269.23 95.5696C269.173 95.494 269.096 95.3995 269.058 95.2861C267.875 93.5471 266.922 91.7892 266.274 89.7856C265.988 88.9728 265.702 88.16 265.435 87.3283C265.34 87.0636 265.34 87.0636 264.959 87.0258H262.727C262.041 87.0447 260.973 87.1581 260.534 87.2338C260.115 87.3283 260.076 87.3283 260.076 87.0825C260.096 86.7801 260.134 86.4399 260.134 85.6649C260.134 85.1923 260.115 84.8143 260.076 84.5874C260.057 84.2661 260.076 84.1716 260.4 84.2661C260.743 84.3606 261.373 84.474 262.765 84.5685C263.09 84.5874 266.56 84.7765 268.371 84.7009C268.773 84.682 269.077 84.7009 269.249 84.6442C269.344 84.6252 269.401 84.5874 269.42 84.5496C269.439 84.474 269.478 84.3417 269.497 84.1716C269.516 83.7746 269.497 83.1509 269.42 82.546C269.344 81.9411 269.192 81.6576 269.268 81.5442C269.344 81.4686 269.554 81.5064 270.012 81.5631ZM268.524 87.0258C268.277 87.0258 268.124 87.0258 268.143 87.3283C268.162 87.5551 268.277 87.9331 268.486 88.6514C268.867 90.0124 269.497 91.3166 270.24 92.5453C270.699 93.2636 271.099 93.7928 271.27 93.7928C271.404 93.7928 271.557 93.6605 271.823 93.2447C272.281 92.5453 272.719 91.7325 273.063 90.9575C273.54 89.7667 273.845 88.6136 274.092 87.2716C274.111 87.0069 274.036 87.0258 273.807 87.0258C272.796 87.0069 269.401 87.0069 268.524 87.0258Z" fill="#EF3B2C"/>
<path d="M293.639 88.0465C293.639 87.8008 293.773 87.7819 293.926 87.8008C294.002 87.8008 294.078 87.8197 294.154 87.8575C294.383 87.8764 294.86 87.9331 295.413 87.952C296.614 88.0087 298.349 88.0087 299.76 88.0087C300.638 88.0087 301.115 88.0087 301.839 87.9898C302.335 87.9898 302.85 87.9898 303.346 87.9709C303.613 87.952 303.899 87.8953 304.185 87.8386C304.604 87.763 304.681 87.7819 305.043 88.1221C305.349 88.4246 305.844 88.9916 306.092 89.3697C306.264 89.6721 306.34 90.0502 305.94 90.2014C305.653 90.2959 305.33 90.466 305.062 90.6928C304.815 90.9008 304.585 91.1465 304.338 91.3355C302.373 92.9044 301.725 93.2447 301.496 93.5471C301.42 93.6416 301.401 93.755 301.401 93.8873C301.401 94.0575 301.401 94.4355 301.42 94.6434C301.439 94.8513 301.477 94.8135 301.649 94.8135C301.82 94.8135 302.927 94.8135 304.319 94.7946C305.368 94.7757 306.435 94.7757 307.484 94.719C308.648 94.6623 309.887 94.6623 310.974 94.2465C311.07 94.1898 311.222 94.1142 311.298 94.2465C311.317 94.341 311.241 94.4922 311.221 94.6623C311.146 94.9648 311.127 95.305 311.146 95.6641C311.165 96.1178 311.202 96.4391 311.241 96.7605C311.298 97.0818 311.222 97.1007 310.898 97.1007C309.772 97.044 307.79 97.0251 306.187 97.0062L301.706 97.0251C301.477 97.044 301.477 97.1196 301.477 97.3464C301.477 97.5544 301.477 97.9513 301.477 98.1592L301.573 100.352C301.592 100.919 301.573 101.429 301.286 101.921C300.962 102.545 300.352 103.074 299.456 103.282C298.807 103.452 298.121 103.49 297.453 103.433C297.11 103.433 297.034 103.338 296.919 102.904C296.844 102.488 296.786 102.223 296.672 101.826C296.519 101.429 296.367 101.146 296.29 100.976C296.233 100.843 296.214 100.692 296.442 100.73C297.396 100.938 298.178 101.07 298.559 100.938C298.789 100.862 298.845 100.635 298.845 100.39L298.826 97.3464C298.807 97.1007 298.77 97.044 298.54 97.044C298.312 97.0629 296.5 97.044 295.241 97.044H292.495C292.038 97.044 290.989 97.1007 290.34 97.1385C289.997 97.1952 289.616 97.2141 289.291 97.3086C289.063 97.3842 288.967 97.3275 288.967 97.0062C288.967 96.7038 288.948 95.0593 288.91 94.4733C288.91 94.2276 288.986 94.152 289.235 94.2654C289.787 94.5489 290.416 94.6056 291.046 94.6623C291.675 94.719 292.285 94.7568 292.915 94.7568C293.849 94.7379 297.872 94.7757 298.521 94.7757C298.751 94.7757 298.77 94.7757 298.77 94.5489C298.77 94.2465 298.77 93.755 298.751 93.2447C298.751 92.6776 298.693 92.1294 298.674 91.9782C298.655 91.7514 298.77 91.6758 299.055 91.7325L299.837 91.9782C300.047 92.0349 300.143 92.0349 300.314 91.9026C300.486 91.7703 301.897 90.466 302.05 90.3526C302.182 90.2203 302.144 90.1447 301.973 90.1447C301.42 90.1447 300.066 90.1258 298.979 90.1258C297.377 90.1258 294.46 90.277 294.154 90.2959C293.849 90.3526 293.83 90.2959 293.773 90.0502C293.754 89.8612 293.639 88.3301 293.639 88.0465ZM298.674 80.8448C298.368 80.8448 298.349 80.9393 298.426 81.185C298.579 81.9411 298.598 82.6594 298.579 83.3966C298.579 83.7368 298.502 83.7368 298.255 83.7368C296.844 83.7935 291.77 83.7935 290.054 83.7557C289.635 83.7368 289.501 83.7746 289.501 84.2094C289.501 84.4551 289.52 85.5325 289.501 86.5722C289.482 87.5929 289.444 88.6325 289.348 89.6532C289.291 90.1258 289.291 90.1447 289.75 90.1825C290.093 90.2014 291.561 90.1825 291.675 90.2014C292.076 90.2014 292.057 90.1447 292.019 89.8044C292 89.502 291.961 88.2167 291.961 87.8197C291.961 87.2148 291.961 86.6478 291.98 86.3831C292 86.1374 292.038 86.0807 292.457 86.0807H308.037C308.342 86.0807 308.418 86.0996 308.418 86.5722C308.418 87.0258 308.342 89.0673 308.342 89.5776C308.323 89.8044 308.399 89.8612 308.629 89.8612C309.124 89.8801 310.497 89.8801 310.612 89.8801C310.783 89.8612 310.821 89.8233 310.821 89.5965V83.9069C310.821 83.6801 310.764 83.6045 310.402 83.6234C308.361 83.6801 301.611 83.6801 301.458 83.6801C301.286 83.6801 301.229 83.6801 301.229 83.51C301.229 83.3399 301.229 82.6405 301.248 82.3948C301.305 82.0734 301.382 81.8277 301.42 81.6387C301.496 81.3362 301.515 81.2228 301.21 81.1094C300.905 80.996 300.352 80.9582 299.303 80.8259C299.17 80.8826 298.902 80.8448 298.674 80.8448Z" fill="#EF3B2C"/>
<path d="M319.46 99.161C319.479 96.9684 319.441 82.2436 319.441 81.9978C319.441 81.7143 319.46 81.6576 319.689 81.6576H324.189C325.468 81.6576 328.29 81.6576 328.557 81.6576C328.861 81.6576 328.88 81.6576 328.88 81.96V89.7288C328.88 90.0124 328.824 90.0313 328.537 90.0124C328.271 90.0124 327.679 89.9935 326.879 89.9557C325.372 89.9368 323.178 89.9368 321.978 89.9368C321.691 89.9368 321.673 89.9557 321.673 90.1069C321.673 90.2392 321.615 93.7928 321.615 94.9836C321.615 100.692 321.901 102.601 321.997 103.509C322.016 103.849 322.016 103.962 321.825 103.962C321.1 104.038 319.822 104.019 319.517 103.962C319.194 103.943 319.174 103.905 319.193 103.546C319.307 102.526 319.46 100.862 319.46 99.161ZM321.863 86.7045C321.729 86.7045 321.767 86.7612 321.767 86.8368V87.8764C321.767 87.9709 321.786 88.0465 321.901 88.0465L326.573 88.0276C326.669 88.0276 326.707 88.0276 326.707 87.9331V86.8368C326.707 86.7612 326.707 86.7045 326.535 86.7045H321.863ZM321.863 83.5856C321.767 83.5856 321.767 83.6423 321.767 83.6801V84.7576C321.767 84.8521 321.786 84.9088 321.901 84.9088H326.573C326.669 84.9088 326.707 84.8899 326.707 84.7765V83.699C326.707 83.5667 326.707 83.5667 326.535 83.5667H321.863V83.5856ZM324.247 100.976C324.247 100.579 324.304 99.8982 324.304 99.3878V91.6191C324.304 91.3733 324.38 91.3166 324.609 91.3166C326.096 91.3355 328.156 91.3355 330.063 91.3355H335.365C335.612 91.3355 335.689 91.3922 335.689 91.5812C335.689 92.6776 335.746 98.0647 335.746 99.5769C335.746 99.9927 335.727 100.068 335.25 100.068C335.04 100.049 334.621 100.049 334.049 100.049C331.913 100.031 327.871 100.049 326.935 100.049C326.764 100.049 326.707 100.068 326.707 100.257L326.688 101.013C326.688 101.146 326.688 101.184 326.554 101.184H324.438C324.304 101.184 324.247 101.108 324.247 100.976ZM326.764 93.0745C326.688 93.0745 326.669 93.1312 326.669 93.2068V94.6245C326.669 94.7001 326.726 94.7568 326.822 94.7568H333.152C333.228 94.7568 333.286 94.7379 333.286 94.53V93.2257C333.286 93.0934 333.286 93.0745 333.115 93.0745H326.764ZM326.764 96.6281C326.688 96.6281 326.669 96.6848 326.669 96.7226V98.0836C326.669 98.1781 326.726 98.2537 326.822 98.2537H333.152C333.228 98.2537 333.286 98.2348 333.286 98.0458V96.7037C333.286 96.6092 333.286 96.6092 333.115 96.6092H326.764V96.6281ZM331.341 81.9033C331.321 81.771 331.417 81.6765 331.513 81.6765L340.303 81.6576C340.552 81.6576 340.609 81.6765 340.609 81.9033L340.59 89.5776C340.59 91.6379 340.647 97.5921 340.647 99.4257C340.666 100.824 340.418 102.242 339.198 103.055C338.092 103.811 336.928 103.905 336.28 103.83C335.956 103.811 335.803 103.754 335.67 103.49L335.116 102.261C335.04 102.129 334.945 101.94 334.869 101.807C334.716 101.562 334.85 101.524 335.097 101.505C335.441 101.486 336.051 101.486 336.661 101.373C338.645 101.051 338.34 100.068 338.34 95.1727V90.2959C338.34 90.0124 338.321 89.9746 338.168 89.9746C337.557 89.9746 333.286 89.9557 332.543 89.9746C332.161 89.9746 331.894 89.9935 331.76 89.9935C331.436 90.0502 331.341 89.9179 331.36 89.5965C331.398 88.7459 331.398 83.6423 331.341 81.9033ZM333.629 83.5478C333.553 83.5478 333.534 83.6045 333.534 83.6423V84.7198C333.534 84.871 333.553 84.871 333.667 84.871H338.149C338.244 84.871 338.244 84.871 338.244 84.7386V83.6423C338.244 83.5667 338.244 83.5478 338.072 83.5478H333.629ZM333.629 86.7045C333.534 86.7045 333.534 86.7612 333.534 86.799V87.9142C333.534 88.0843 333.553 88.1221 333.629 88.1221H338.149C338.283 88.1221 338.302 88.1032 338.302 87.9709V86.8179C338.302 86.7234 338.302 86.6856 338.13 86.6856H333.629V86.7045Z" fill="#EF3B2C"/>
<path d="M358.058 84.6441C358.134 84.663 358.153 84.7197 358.192 84.8521C358.211 85.06 358.287 86.4398 358.287 86.7423C358.268 86.8746 358.306 86.988 358.153 87.0447C358.077 87.1014 357.943 87.0447 357.848 87.0447C357.276 86.9502 356.036 86.8935 354.397 86.8935C353.824 86.8935 352.203 86.9502 350.906 87.0447C350.201 87.1014 349.534 87.1392 349.191 87.2148C349.019 87.2715 348.904 87.3093 348.904 87.0636L348.923 85.0411C348.923 84.7197 348.999 84.6441 349.21 84.7008C349.438 84.7575 349.686 84.7575 349.896 84.7764C351.078 84.9088 352.26 84.9088 353.462 84.9277H354.548C355.674 84.9277 356.761 84.8521 357.886 84.6441C357.981 84.6063 358.02 84.6063 358.058 84.6441ZM349.915 87.8197C350.049 87.8764 350.163 87.9142 350.296 87.952C350.792 88.0276 351.345 88.0465 351.879 88.0843C352.432 88.1032 352.985 88.0843 353.539 88.0843C354.644 88.0843 355.617 88.0654 355.96 88.0276C356.436 88.0087 356.799 87.9709 357.142 87.9331C357.466 87.9142 357.524 87.9142 357.543 88.2167C357.543 88.4246 357.6 89.4642 357.6 89.9557C357.619 90.2392 357.543 90.1636 357.314 90.1636C356.589 90.1636 354.625 90.1069 353.576 90.1069C351.593 90.1069 350.353 90.1636 350.01 90.1825C349.667 90.2014 349.629 90.2014 349.667 89.9746L349.686 89.1996C349.686 88.9916 349.667 88.7837 349.629 88.4813C349.629 88.3301 349.61 88.1788 349.61 88.0843C349.553 87.8197 349.629 87.7063 349.915 87.8197ZM359.584 82.0167C359.088 82.0167 359.011 82.0734 359.03 82.5838C359.126 84.1338 359.183 86.2697 359.183 88.1221V89.7099C359.183 91.7514 359.126 93.755 358.897 95.7586C358.745 97.233 358.477 98.8775 357.581 100.125C357.505 100.22 357.447 100.201 357.447 99.9927C357.428 98.8397 357.428 94.8513 357.428 94.6434C357.447 94.341 357.409 94.341 357.2 94.341H349.934C349.781 94.341 349.686 94.341 349.706 94.719C349.762 95.0971 349.781 95.683 349.781 98.1025C349.781 100.541 349.686 101.959 349.648 102.545C349.629 102.79 349.553 102.885 349.857 102.923C350.144 102.941 351.364 102.979 351.46 102.941C351.613 102.923 351.669 102.885 351.669 102.809C351.688 102.752 351.745 101.77 351.764 101.486C351.784 101.467 351.784 101.392 351.822 101.392C351.898 101.335 354.835 101.373 354.969 101.373C355.063 101.373 355.121 101.373 355.121 101.467C355.121 101.543 355.14 102.261 355.178 102.563C355.197 102.715 355.178 102.79 355.407 102.847H357.371C357.505 102.847 357.6 102.828 357.581 102.507V101.807C357.581 101.675 357.638 101.675 357.753 101.713C358.23 101.807 358.63 102.129 358.935 102.318C359.088 102.412 359.221 102.488 359.335 102.299C359.545 101.959 359.888 100.995 360.175 100.049C360.784 98.0836 360.976 96.0044 361.128 93.9629C361.204 92.9611 361.261 91.6947 361.261 90.4282C361.28 89.5965 361.261 87.0069 361.261 86.5155V84.3039C361.261 84.1338 361.242 84.0771 361.51 84.0771H368.527C368.87 84.0771 368.851 84.096 368.87 84.5496C368.87 85.0033 369.214 96.2312 369.099 98.8586C369.08 99.3312 369.023 99.8793 368.794 100.295C368.489 100.843 368.031 100.843 367.555 100.862C366.83 100.881 366.315 100.843 366.048 100.806C365.667 100.806 365.59 100.862 365.705 101.202C365.781 101.373 365.877 101.675 366.01 102.072C366.029 102.129 366.105 102.45 366.22 102.715C366.315 103.017 366.392 103.036 366.716 103.036C368.165 103.036 369.881 103.055 370.663 101.599C370.93 101.108 371.006 100.56 371.006 99.9738L370.873 82.6405C370.873 81.9978 370.854 81.9978 370.262 82.0167C369.462 82.0167 367.001 82.0734 364.656 82.0734C362.196 82.0734 359.869 82.0167 359.584 82.0167ZM349.934 81.6198C349.725 81.6009 349.686 81.5631 349.686 81.7521C349.706 81.96 349.706 82.9807 349.743 83.3966C349.743 83.699 349.819 83.699 350.068 83.6612C350.544 83.6423 351.726 83.6045 353.176 83.6045C355.083 83.6045 357.028 83.6045 357.219 83.6234C357.447 83.6234 357.505 83.5667 357.505 83.5289V83.3966C357.447 83.1509 357.428 82.9051 357.409 82.6405C357.352 82.357 357.334 82.0923 357.353 81.8088C357.353 81.6576 357.295 81.6009 357.104 81.6576C356.819 81.7143 355.865 81.7332 355.274 81.7899C354.663 81.8088 354.339 81.8088 353.309 81.8088C352.299 81.8466 350.659 81.7521 349.934 81.6198ZM349.991 91.241L350.64 91.3166C351.402 91.3922 352.146 91.4111 352.909 91.4489C353.252 91.4678 353.614 91.4678 353.92 91.4678C354.816 91.4678 356.551 91.3922 357.162 91.3355C357.505 91.3166 357.505 91.3355 357.505 91.638L357.581 93.2068C357.581 93.4148 357.562 93.4337 357.334 93.4337C356.78 93.4148 354.987 93.3014 353.595 93.2824C352.394 93.2635 351.173 93.2824 350.029 93.5282C349.743 93.5849 349.725 93.5093 349.725 93.2446V91.3733C349.706 91.241 349.706 91.1843 349.991 91.241ZM351.994 99.2934C351.86 99.2934 351.822 99.2366 351.822 99.1421V96.5525C351.822 96.4202 351.879 96.3824 351.994 96.3824H355.083C355.178 96.3824 355.235 96.4391 355.235 96.5147V99.1232C355.235 99.2556 355.178 99.2934 355.083 99.2934H351.994ZM368.127 93.0556C368.127 92.7721 368.127 92.7343 367.84 92.7343C367.269 92.7532 365.915 92.791 364.694 92.791C363.092 92.791 362.025 92.7721 361.91 92.7721C361.7 92.7721 361.624 92.791 361.662 93.0745C361.681 93.3581 361.681 96.2312 361.681 97.4598C361.681 98.4617 361.586 99.5202 361.529 99.8793C361.529 100.087 361.605 100.087 361.776 100.087H363.283C363.493 100.068 363.626 100.012 363.607 99.8415C363.607 99.6903 363.588 99.0854 363.55 98.8397C363.55 98.7074 363.607 98.6696 363.76 98.6696H366.029C366.105 98.6696 366.124 98.6885 366.124 98.8208C366.124 98.9153 366.124 99.2934 366.143 99.6147C366.163 99.8604 366.22 99.9549 366.296 100.031C366.354 100.049 366.448 100.049 366.582 100.049C366.963 100.068 367.822 100.049 368.07 99.9927C368.355 99.936 368.374 99.8982 368.317 99.5202C368.299 99.1799 368.146 97.7434 368.146 96.0989C368.165 94.7946 368.127 93.0745 368.127 93.0556ZM365.952 84.4929C366.239 84.5118 366.258 84.5496 366.201 84.7953C366.143 85.1734 366.143 85.9862 366.143 86.1941C366.143 86.4398 366.163 86.4587 366.429 86.4966C366.887 86.4966 367.44 86.4776 367.878 86.4398C368.05 86.4209 368.184 86.4398 368.184 86.6667C368.184 86.9691 368.184 87.3661 368.242 88.0087C368.261 88.2923 368.299 88.3112 367.955 88.3112H366.448C366.201 88.3112 366.162 88.3301 366.162 88.538V90.1069C366.162 90.2392 366.163 90.3148 366.467 90.3148C366.697 90.3148 367.746 90.2959 367.993 90.2581C368.241 90.2581 368.261 90.277 368.261 90.466C368.317 91.1087 368.317 91.638 368.28 91.8459C368.28 92.0538 368.203 92.0727 367.955 92.0538C367.326 91.9971 365.915 92.0349 365.056 92.0349L361.891 92.0538C361.719 92.0727 361.662 92.0349 361.643 91.9215C361.643 91.8648 361.642 91.2221 361.7 90.6172C361.7 90.5416 361.7 90.3715 361.795 90.3148C361.872 90.2581 361.967 90.3148 362.044 90.3148C362.329 90.3337 362.768 90.3715 363.168 90.3715H363.55C364.027 90.3715 364.027 90.3148 364.027 90.088V88.538C364.027 88.3868 364.008 88.3679 363.721 88.3679C363.417 88.3679 362.234 88.349 361.91 88.3868C361.662 88.4057 361.662 88.3301 361.662 88.141C361.642 87.7252 361.605 86.7801 361.605 86.6478C361.624 86.4776 361.662 86.4209 361.834 86.4209C362.253 86.4398 362.482 86.4965 363.245 86.4776H363.702C363.874 86.4776 363.874 86.4776 363.874 86.3075C363.874 86.1563 363.874 85.835 363.855 85.5892C363.798 85.2679 363.779 85.0222 363.76 84.8143C363.702 84.5874 363.741 84.5307 363.989 84.4929C364.16 84.4362 365.8 84.4551 365.952 84.4929ZM363.836 96.9117C363.741 96.9117 363.683 96.855 363.683 96.7605V94.9647C363.683 94.8324 363.702 94.7946 363.836 94.7946H365.915C366.01 94.7946 366.048 94.8513 366.048 94.9269V96.7227C366.048 96.8739 366.029 96.9306 365.896 96.9306H363.836V96.9117Z" fill="#EF3B2C"/>
<path d="M390.324 94.5489C390.096 94.6056 390.019 94.5678 389.847 94.4166C389.542 94.0953 388.989 93.4904 388.723 93.1123C388.551 92.9044 388.627 92.8099 388.875 92.7721C390.153 92.4697 391.373 92.1483 392.575 91.5435C393.375 91.1465 393.986 90.7118 394.329 90.466C394.538 90.3148 394.538 90.2392 394.405 90.0124C394.253 89.7099 393.91 89.2374 393.547 88.6703C393.089 87.8953 392.822 87.4039 392.688 87.1771C392.556 86.9313 392.518 86.9313 392.346 87.0258L391.85 87.4795C391.773 87.5362 391.716 87.574 391.621 87.4795C391.468 87.3283 390.781 86.6289 390.724 86.5911C390.649 86.4966 390.591 86.4966 390.591 86.7612C390.591 87.0258 390.591 89.3319 390.61 89.6532C390.61 89.9557 390.534 90.0313 390.153 90.0313H388.189C388.131 90.0313 388.093 90.0313 388.055 90.0313C387.921 90.0313 387.883 90.0502 387.978 90.1636L388.055 90.2203C388.398 90.5227 389.294 90.9008 389.714 91.0709C389.885 91.1465 389.924 91.241 389.866 91.3922C389.733 91.7136 389.257 92.1861 389.027 92.3941C388.799 92.602 388.646 92.5453 388.246 92.3752C387.674 92.1483 386.929 91.6569 386.529 91.4868C386.301 91.3544 386.243 91.3355 386.282 91.7703L386.434 93.8684C386.453 94.1898 386.339 94.1898 385.824 94.2465C385.499 94.2654 384.413 94.2276 384.317 94.1898C384.088 94.1709 384.107 93.9818 384.145 93.8117C384.203 93.4715 384.279 92.5831 384.279 92.1105C384.279 91.7136 384.279 91.6947 383.898 91.8648C383.002 92.3185 382.086 92.8099 381.152 93.2258L380.599 93.4526C380.446 93.5282 380.35 93.4715 380.256 93.377C379.779 93.0367 379.397 92.5831 379.168 92.0349C379.149 91.9782 379.092 91.827 379.111 91.7892C379.169 91.7325 379.207 91.7325 379.264 91.7703C379.416 91.7892 379.55 91.7514 379.683 91.6947C380.694 91.3733 381.667 90.7496 382.029 90.5038C382.238 90.3337 382.2 90.2581 381.895 90.2581C381.61 90.2581 380.179 90.3148 379.912 90.3337C379.626 90.3526 379.607 90.277 379.626 90.0502C379.683 89.5587 379.703 88.1978 379.703 87.3094C379.703 86.4777 379.683 85.835 379.645 85.4002C379.626 85.06 379.645 84.9277 379.912 84.9277L383.002 84.9466C383.345 84.9466 383.649 84.9277 383.802 84.9277C383.936 84.9277 383.974 84.9088 383.974 84.7765V84.2283C383.955 83.9448 383.917 83.9826 383.668 83.9826H381.59C380.884 84.0015 379.245 84.1338 379.035 84.1527C378.826 84.1716 378.787 84.096 378.787 83.8314C378.768 83.5478 378.768 82.4326 378.787 82.168C378.787 81.9222 378.806 81.7521 379.073 81.7899C379.626 81.9411 380.179 81.96 380.733 81.9978C381.495 82.0167 382.525 82.0735 383.173 82.0735C383.325 82.0735 383.497 82.0734 383.63 82.0545C383.764 82.0545 383.84 82.0356 383.84 81.9033C383.84 81.8466 383.821 81.771 383.821 81.6954C383.802 81.5253 383.726 81.2796 383.611 80.9015C383.536 80.6936 383.555 80.5991 383.821 80.5802L385.9 80.6369C386.071 80.6369 386.282 80.6936 386.358 80.8448C386.415 80.9771 386.358 81.1283 386.301 81.2228C386.282 81.3174 386.224 81.393 386.205 81.4497V81.582C386.186 81.6576 386.205 81.8277 386.205 81.9222C386.205 82.0167 386.205 82.0735 386.339 82.0735H386.567C387.044 82.0924 390.362 81.9978 391.621 81.8466C391.773 81.8277 391.831 81.9222 391.831 82.0545C391.831 82.546 391.811 82.8484 391.888 83.6801C391.907 84.1338 391.945 84.1338 391.488 84.0771C391.068 84.0582 389.351 83.9826 388.303 83.9826C387.273 83.9826 386.625 84.0015 386.415 84.0015C386.282 84.0015 386.282 84.0204 386.262 84.1338V84.8521C386.262 85.0222 386.358 85.0033 386.51 85.0033H388.646C389.37 85.0033 389.885 84.9277 390.305 84.8521C390.515 84.8332 390.591 84.8521 390.649 84.9277C390.724 85.0222 390.724 85.1356 390.706 85.249C390.687 85.3246 390.649 85.6271 390.63 85.8161C390.611 85.9862 390.63 85.9862 390.781 85.8917C390.858 85.835 390.953 85.7972 391.068 85.7216C391.621 85.3246 392.575 84.0771 393.127 83.0564C393.261 82.8484 393.414 82.5838 393.509 82.3381C393.718 81.9411 393.776 81.5631 393.833 81.1094C393.852 80.9393 393.852 80.7881 394.081 80.8826C395.206 81.2796 395.797 81.5253 396.083 81.7332C396.389 81.96 396.312 82.0734 396.14 82.3003C396.007 82.3948 395.855 82.546 395.74 82.7539C395.606 82.9619 395.397 83.3777 395.34 83.4722C395.282 83.6045 395.321 83.6423 395.606 83.6423C395.855 83.6612 397.017 83.6612 397.513 83.6423C399.154 83.5667 400.508 83.51 401.156 83.3966C401.308 83.3777 401.404 83.3966 401.442 83.6045L401.518 85.0978C401.538 85.3813 401.576 85.5515 401.576 85.646C401.576 85.9295 401.499 85.9484 401.27 85.9484H399.401C399.154 85.9484 399.154 85.9673 399.096 86.1941C399.02 86.5155 398.944 86.8368 398.886 87.1392C398.658 88.1411 398.314 89.0484 397.8 89.9368C397.647 90.2014 397.704 90.2581 397.895 90.4093C398.314 90.7118 399.344 91.3355 400.927 91.9026C401.194 91.9971 401.823 92.1861 402.128 92.2807C402.224 92.2996 402.281 92.2995 402.281 92.2995C402.357 92.3563 402.338 92.4697 402.3 92.5264C402.243 92.602 401.728 93.3014 401.499 93.6227C401.327 93.9062 401.08 94.4166 401.023 94.4733C400.946 94.5678 399.688 94.3221 397.399 92.6776C396.941 92.3563 396.674 92.1294 396.522 91.9971C396.293 91.8459 396.217 91.8459 396.064 91.9971C395.74 92.2807 395.053 93.0367 392.174 94.0575C392.154 93.9819 390.724 94.3977 390.324 94.5489ZM399.02 95.8154C399.02 96.08 399.02 96.3635 399.039 96.458C399.058 96.7794 399.058 96.855 398.867 96.8361C398.658 96.8172 398.39 96.7605 398.219 96.7605C396.866 96.7038 395.778 96.7038 394.92 96.7038C394.71 96.7038 392.384 96.7038 392.022 96.7227C391.869 96.7227 391.811 96.7794 391.811 96.8928V97.6678C391.811 97.819 391.831 97.8379 391.983 97.8379H393.414C394.119 97.8379 395.091 97.819 396.483 97.7623C396.941 97.7434 397.361 97.7056 397.819 97.6678C397.99 97.6489 398.047 97.6489 398.067 97.8001C398.124 97.9702 398.162 99.1044 398.162 99.5202C398.162 99.8226 398.162 99.8982 397.856 99.8604C397.532 99.8037 393.89 99.8037 393.052 99.8037H392.098C391.869 99.8037 391.869 99.8793 391.869 100.031C391.85 100.238 391.888 100.73 391.888 100.881C391.888 101.051 391.945 101.051 392.098 101.051L394.233 101.07C395.13 101.051 396.045 101.013 396.922 101.013C398.352 101.013 399.974 100.938 401.213 100.768C401.461 100.749 401.538 100.768 401.538 101.013C401.538 101.032 401.67 102.639 401.689 103.131C401.689 103.357 401.632 103.452 401.385 103.433C400.278 103.357 396.236 103.055 390.477 103.112C389.027 103.131 383.536 103.187 382.276 103.282C380.561 103.433 379.645 103.622 379.188 103.698C378.939 103.716 378.73 103.754 378.844 103.414C378.92 103.187 378.92 102.847 378.92 102.45C378.901 101.959 378.826 101.278 378.787 100.957C378.768 100.749 378.768 100.635 379.035 100.673C379.359 100.73 379.683 100.768 379.988 100.806C381.648 101.013 382.925 101.032 383.611 101.032H384.088C384.26 101.013 384.298 100.957 384.298 100.787C384.317 100.484 384.355 99.9361 384.317 99.5958C384.317 99.1044 384.317 98.594 384.298 98.3483C384.298 98.1781 384.279 98.0458 384.279 98.008C384.203 97.8001 384.069 97.6678 384.375 97.5922C384.66 97.4977 385.232 97.441 386.033 97.4977C386.51 97.5544 386.739 97.63 386.797 97.7434C386.854 97.819 386.854 97.9135 386.777 98.1214C386.624 98.3861 386.644 98.6129 386.625 98.8964C386.605 99.3501 386.548 100.201 386.548 100.598C386.548 100.749 386.548 100.862 386.567 100.938C386.586 101.108 386.701 101.146 386.854 101.146L389.389 101.127C389.6 101.127 389.561 101.07 389.6 100.9C389.657 100.22 389.6 97.441 389.6 97.1385C389.6 96.8361 389.6 96.7983 389.294 96.7983H388.169C386.301 96.7983 382.963 96.9306 381.876 97.0251C381.667 97.0251 381.552 97.044 381.418 97.0818C381.037 97.1385 381.018 97.0818 381.018 96.7038L380.923 94.7568C380.923 94.53 380.999 94.53 381.323 94.5867C381.629 94.6434 382.219 94.6623 382.925 94.719C384.183 94.8135 388.189 94.8135 390.439 94.8135C392.307 94.8135 394.005 94.7568 395.34 94.6812C396.236 94.6623 397.17 94.6245 398.086 94.53C398.333 94.5111 398.562 94.4355 398.81 94.3788C398.982 94.3599 399.077 94.3977 399.039 94.6056C398.982 95.0026 399.02 95.4184 399.02 95.8154ZM381.667 88.5569H384.012C384.107 88.5569 384.164 88.5002 384.164 88.3868V86.5722C384.164 86.4966 384.107 86.4399 384.032 86.4399H381.648C381.514 86.4399 381.495 86.4588 381.495 86.5722V88.4246C381.495 88.5191 381.552 88.5569 381.667 88.5569ZM386.339 88.5569H388.493C388.627 88.5569 388.646 88.5002 388.646 88.3868V86.5722C388.646 86.4966 388.627 86.4399 388.512 86.4399H386.32C386.186 86.4399 386.167 86.4399 386.167 86.5722V88.4246C386.186 88.5191 386.243 88.5569 386.339 88.5569ZM396.502 85.8161C395.968 85.8161 394.634 85.8161 394.367 85.835C394.138 85.835 394.1 85.8539 394.195 86.0618C394.501 86.7423 394.825 87.4039 395.359 87.9331C395.53 88.0844 395.683 88.2167 395.817 88.2734C395.949 88.349 396.026 88.3679 396.102 88.2167C396.351 87.8386 396.751 86.6289 396.789 86.0807C396.77 85.8539 396.732 85.8161 396.502 85.8161Z" fill="#EF3B2C"/>
<path d="M423.792 85.1356C425.241 85.835 426.863 87.0258 427.74 89.0484C428.197 90.0502 428.388 91.0898 428.426 92.1294C428.445 93.6794 428.025 95.2105 427.186 96.5714C426.538 97.6678 425.68 98.6129 424.669 99.3879C423.964 99.9549 423.162 100.465 422.362 100.881C422.133 100.976 421.961 101.051 421.789 101.108C421.58 101.165 421.408 101.127 421.18 100.976C421.084 100.9 419.673 99.936 419.367 99.6714C418.796 99.1989 418.815 99.0665 419.158 98.972C420.284 98.6507 421.504 98.2726 422.534 97.5355C423.544 96.7794 424.441 95.7965 425.013 94.5867C425.356 93.8306 425.49 93.0367 425.471 92.2617C425.413 90.5605 424.593 88.9727 423.658 88.1032C422.934 87.4039 422.019 86.8746 421.027 86.6667C420.855 86.61 420.646 86.5722 420.455 86.5722C420.131 86.5722 420.054 86.6478 419.997 86.9502C419.863 87.8197 419.597 89.7477 419.425 90.6361C418.948 93.1501 418.243 95.2861 417.422 96.9306C416.259 99.1989 414.829 100.484 413.342 100.522C412.693 100.522 412.007 100.276 411.358 99.747C410.672 99.1989 410.004 98.197 409.547 97.0251C408.574 94.5867 408.842 91.7514 410.004 89.4264C410.615 88.2356 411.645 86.7801 413.475 85.6838C414.333 85.1545 415.363 84.663 416.774 84.3606C418.052 84.0771 419.367 84.0204 420.646 84.1905C421.695 84.3417 422.781 84.6441 423.792 85.1356ZM415.897 87.0069C414.486 87.6874 413.284 88.8026 412.484 90.1447C411.988 90.9764 411.645 91.8459 411.549 92.5075C411.492 92.9044 411.473 93.3014 411.473 93.7361C411.473 95.0404 411.797 96.4202 412.808 97.233C413.056 97.441 413.342 97.5733 413.646 97.5355C413.99 97.4788 414.333 97.1196 414.657 96.5336C415.038 95.9666 415.497 95.0404 415.936 93.7928C416.583 91.9971 417.098 90.1069 417.175 88.1789C417.194 87.7819 417.194 87.4039 417.175 87.0069C417.156 86.7612 417.079 86.7045 416.832 86.7234C416.507 86.7801 416.202 86.8746 415.897 87.0069Z" fill="#EF3B2C"/>
<path d="M439.22 94.0953C442.919 92.791 446.046 90.4849 446.084 90.466C446.161 90.3715 446.256 90.2959 446.333 90.2392C446.39 90.1825 446.429 90.1447 446.409 90.1069C446.409 90.1069 446.39 90.088 446.333 90.088C446.237 90.0691 446.085 90.088 446.008 90.088C445.933 90.088 437.084 90.2392 435.978 90.4093C435.825 90.4282 435.73 90.466 435.558 90.5038C435.406 90.5227 435.31 90.5038 435.291 90.3526C435.291 90.2014 435.215 88.0087 435.272 87.6874C435.291 87.6307 435.349 87.5929 435.444 87.6118C436.207 87.7819 436.893 87.9331 438.686 88.0277C440.821 88.1789 444.139 88.1033 444.464 88.1033C444.788 88.1033 444.864 88.0844 444.864 87.8386V86.213C444.864 85.9862 444.807 85.9673 444.654 85.9673C444.521 85.9673 443.492 85.9484 442.538 85.9484C441.585 85.9484 439.754 86.0429 439.563 86.0429C439.391 86.0429 439.353 85.9862 439.353 85.7972C439.353 85.5137 439.335 84.9844 439.277 84.6441C439.258 84.3984 439.182 84.1905 439.143 84.0771C439.086 83.907 439.086 83.7935 439.277 83.7935C439.486 83.7935 440.707 83.8692 441.165 83.8881C441.813 83.907 442.595 83.9448 443.243 83.9448C443.643 83.9448 444.273 83.9259 444.597 83.8881C444.826 83.8881 444.845 83.8314 444.845 83.6423V83.0753C444.845 82.6972 444.826 82.357 444.712 81.96C444.654 81.7143 444.578 81.4686 444.483 81.2039C444.407 81.0716 444.541 80.996 444.807 80.996C445.112 81.0149 447.286 81.2228 447.515 81.2796C447.744 81.3363 447.821 81.4119 447.763 81.5253C447.687 81.6198 447.61 81.8088 447.515 82.0167C447.438 82.2436 447.363 83.0942 447.363 83.6045C447.363 83.8881 447.42 83.907 447.572 83.907H449.136C449.708 83.8881 450.871 83.7746 451.177 83.699C451.501 83.6423 451.558 83.6801 451.52 83.9448C451.501 84.3606 451.501 84.7576 451.539 85.1923C451.539 85.3246 451.539 85.4191 451.673 85.2868C451.882 85.0411 452.32 84.4362 452.874 83.5856C453.178 83.132 453.561 82.546 453.713 82.2247C453.865 81.9222 453.923 81.7332 453.942 81.6009C453.961 81.5253 453.999 81.4686 454.037 81.4497C454.094 81.4308 454.17 81.4308 454.266 81.4497C454.838 81.6198 456.134 82.4704 456.249 82.6027C456.516 82.8862 456.554 83.0942 456.326 83.321C456.039 83.6045 455.639 84.0015 455.124 84.6441C453.865 86.1941 453.178 86.988 452.855 87.4417L452.588 87.8386C452.492 87.9331 452.512 87.9898 452.645 87.9898C452.778 88.0087 452.95 88.0087 453.046 88.0465C453.37 88.0655 453.885 88.0655 454.476 88.0465C455.162 88.0276 455.925 87.9898 456.707 87.8953C457.05 87.8197 457.317 87.8008 457.546 87.763C457.794 87.7063 457.813 87.763 457.851 87.9709C457.889 88.1789 457.908 89.9179 457.851 90.2203C457.794 90.4471 457.775 90.4471 457.356 90.3715C456.707 90.2392 456.039 90.1636 455.391 90.1258C454.304 90.0502 452.797 89.9557 451.729 89.9557C451.12 89.9557 450.643 90.0124 450.413 90.0502C450.28 90.1069 448.335 91.449 447.477 92.016C447.267 92.1483 447.134 92.2617 447.153 92.3185C447.21 92.4508 447.706 92.413 448.125 92.3941C449.308 92.3185 450.471 92.0727 451.596 91.7136C452.149 91.5435 453.808 90.9575 453.961 90.8819C454.285 90.7307 454.304 90.863 454.438 90.9764C454.57 91.1276 454.704 91.3544 455.01 91.6569C455.391 92.0727 455.792 92.4697 456.058 92.6776C456.134 92.7532 456.154 92.8855 456.134 92.9611C456.077 93.1312 455.715 93.1124 455.562 93.1313C455.162 93.1502 454.666 93.1502 454.38 93.2069C454.247 93.2069 452.988 93.5093 451.825 93.7361C450.509 94.0008 449.232 94.1898 447.934 94.2843C446.981 94.3599 446.123 94.4166 445.78 94.4355C445.646 94.4355 445.57 94.4355 445.494 94.5678C445.399 94.719 445.341 95.0215 445.322 95.1916C445.303 95.3995 445.475 95.3617 445.646 95.3995C446.905 95.494 451.825 95.494 454.247 95.3239C454.59 95.305 455.028 95.2294 455.277 95.1538C455.372 95.1349 455.487 95.1349 455.658 95.2105C455.83 95.2861 456.058 95.494 456.44 95.7398C457.012 96.1367 457.336 96.3824 457.488 96.5904C457.718 96.8739 457.622 96.9873 457.413 97.1385C457.26 97.233 457.088 97.3465 456.936 97.4788C456.649 97.7056 456.44 98.0269 456.23 98.3294C455.83 98.9531 455.429 99.5202 454.953 100.068C454.266 100.824 453.503 101.486 452.721 102.091C451.596 102.96 450.356 103.565 449.021 103.565C448.411 103.584 447.821 103.471 447.191 103.225C446.791 103.074 446.008 102.696 445.703 102.545C445.494 102.45 445.456 102.337 445.531 102.148C445.608 101.978 445.684 101.656 445.761 101.316C445.837 101.07 445.914 100.692 445.971 100.465C446.027 100.257 446.104 100.257 446.276 100.333C446.448 100.409 446.676 100.541 446.848 100.617C447.629 100.995 448.278 101.259 448.983 101.259C449.86 101.278 450.795 100.862 452.092 99.6336C452.397 99.3312 452.721 98.9909 453.027 98.6318C453.178 98.4239 453.636 97.8568 453.827 97.5922C453.923 97.4599 453.846 97.4221 453.732 97.4221C453.599 97.4032 453.446 97.4032 453.408 97.4032C452.721 97.4032 444.731 97.4977 444.616 97.5355C444.56 97.5355 444.541 97.5922 444.521 97.6111C444.197 98.5373 444.101 99.0287 444.045 99.2556C443.987 99.4824 443.949 99.4635 443.739 99.4257L441.794 99.1044C441.565 99.0855 441.47 99.0477 441.565 98.8586C441.794 98.405 442.119 97.6678 442.5 96.458C442.728 95.7398 442.805 95.3617 442.805 95.1538C442.805 94.9459 442.728 94.9837 442.576 95.0215L438.876 96.5337C437.694 96.9495 436.913 97.1007 436.436 97.2141C436.226 97.233 436.111 97.233 436.054 97.2141C435.844 97.0818 435.902 97.0629 434.967 95.8532C434.834 95.6831 434.681 95.4562 434.567 95.3239C434.414 95.1727 434.548 95.0782 434.7 95.0404C436.187 94.9081 437.771 94.6056 439.22 94.0953ZM449.06 87.9709C449.155 87.952 449.384 87.8008 449.613 87.5929C450.071 87.2149 450.585 86.6478 450.814 86.421C450.909 86.3264 450.948 86.2697 450.833 86.213C450.738 86.1374 450.566 86.1185 450.433 86.0807C450.185 86.024 449.747 86.0051 449.403 86.0051H447.419C447.21 86.0051 447.172 86.0807 447.172 86.2319V87.8575C447.172 87.952 447.191 88.0655 447.344 88.0655C447.477 88.0844 448.888 88.0276 449.06 87.9709Z" fill="#EF3B2C"/>
<path d="M465.765 98.4617C466.299 97.9135 468.396 95.5696 468.93 94.9458C469.865 93.8306 471.867 91.3355 472.325 90.6928C472.382 90.6172 472.478 90.5227 472.459 90.4093C472.459 90.3526 472.44 90.3337 472.363 90.3337C472.287 90.3148 472.21 90.3337 472.135 90.3337C471.658 90.4282 470.228 90.7496 468.607 91.3355C468.511 91.3544 468.435 91.4111 468.359 91.43C468.206 91.5056 468.053 91.5623 467.806 91.3544C467.634 91.2032 467.406 90.9008 467.081 90.3526C467.081 90.3526 466.47 89.1618 466.318 88.8404C466.146 88.5002 466.337 88.3679 466.661 88.3868C467.31 88.3868 467.977 88.3679 468.626 88.3112C469.503 88.2167 470.361 88.0654 471.238 87.8953C472.21 87.6685 473.202 87.4039 474.175 87.1203C475.071 86.8746 475.681 86.6667 475.967 86.5722C476.196 86.5155 476.311 86.5533 476.444 86.7423C476.749 87.2715 477.245 88.3679 477.474 88.8782C477.627 89.2563 477.627 89.2941 477.397 89.4453C477.264 89.5209 477.073 89.6721 476.864 89.8233C476.463 90.1447 476.101 90.466 475.758 90.8252C475.033 91.5245 474.347 92.2995 473.774 93.0934L473.602 93.3959C473.546 93.4904 473.584 93.5282 473.679 93.5471L474.785 93.9629C475.892 94.4544 476.292 95.1916 476.387 95.683C476.406 95.891 476.444 96.1745 476.444 96.5147C476.444 97.0062 476.426 97.5922 476.426 97.9891C476.406 98.3671 476.406 98.7452 476.558 99.0854C476.692 99.4635 477.016 99.7281 477.799 99.7659C478.218 99.7848 478.809 99.7092 479.591 99.558C480.83 99.2744 481.326 99.1421 481.555 99.0854C481.764 99.0287 481.879 99.1421 481.86 99.3123L481.803 99.4635C481.803 99.4635 481.249 101.637 481.23 101.656C481.174 101.864 481.136 101.977 480.964 102.11C480.259 102.526 478.351 102.715 476.788 102.526C474.442 102.223 473.45 100.787 473.602 98.9909C473.698 98.1025 473.985 97.0062 473.774 96.4013C473.641 96.0233 473.298 95.8342 472.84 95.7964C472.116 95.7775 471.391 96.1178 470.856 96.5714C470.437 96.9684 469.999 97.5354 469.293 98.4427C467.31 101.013 466.91 101.599 466.547 102.072C466.414 102.204 466.299 102.223 466.127 102.148C465.918 102.053 465.555 101.77 465.078 101.467L463.954 100.711C463.686 100.503 463.648 100.314 463.935 100.106C464.545 99.6147 465.288 98.9153 465.765 98.4617ZM471.848 83.9826C472.897 84.4551 473.908 85.0222 474.9 85.646C475.205 85.8539 475.243 85.9295 475.509 85.6271C475.815 85.3057 476.463 84.5496 476.711 84.2661C476.845 84.1149 476.883 84.0204 476.788 83.8502C476.635 83.6045 476.139 83.2265 474.842 82.546C473.832 82.0545 473.259 81.8277 472.935 81.7332C472.706 81.6765 472.592 81.6387 472.401 81.8088C472.306 81.8844 471.505 82.8106 471.238 83.2076C470.971 83.6045 470.99 83.6612 471.219 83.7368C471.486 83.8124 471.582 83.8691 471.848 83.9826Z" fill="#EF3B2C"/>
<path d="M499.824 81.563C500.777 81.8088 500.434 81.9411 500.319 82.5649C500.262 82.7917 500.187 83.8313 500.224 84.3606C500.224 84.6819 500.3 84.7386 500.472 84.7575C500.568 84.7575 506.422 84.6252 508.062 84.3795C508.787 84.285 509.245 84.1338 509.511 84.0581C509.759 84.0014 509.931 84.0392 509.931 84.285L510.007 86.8179C510.007 87.0447 509.95 87.2148 509.759 87.1581C509.55 87.0825 508.977 86.988 508.329 86.8746C507.681 86.7423 506.346 86.591 505.393 86.5721C501.368 86.5532 500.072 86.4965 499.614 86.5154C499.385 86.5154 499.366 86.5721 499.347 86.799L499.08 89.3697C499.061 89.5776 499.138 89.6154 499.309 89.6721C499.614 89.7288 500.968 89.7288 502.418 89.7288C504.401 89.7099 506.594 89.6532 506.785 89.6721C507.185 89.691 507.166 89.7288 507.128 89.8989C507.109 90.0502 506.994 90.5416 506.956 90.863C506.536 94.0007 506.002 101.278 503.542 102.715C502.456 103.357 500.644 103.017 499.5 102.734L498.966 102.582C498.832 102.563 498.699 102.526 498.565 102.526C498.393 102.526 498.355 102.45 498.355 102.299C498.336 101.845 498.412 100.39 498.412 100.182C498.412 100.031 498.412 99.936 498.432 99.8604C498.451 99.5769 498.508 99.5769 498.756 99.7092C498.908 99.7848 499.138 99.936 499.481 100.106C501.75 101.221 502.418 99.7092 502.665 99.2555C503.599 97.5921 504.267 93.169 504.114 92.2239C504.095 92.0538 503.943 92.0538 503.79 92.016C502.913 91.9971 499.08 91.9971 498.584 91.9971C498.432 91.9971 498.355 92.016 498.298 92.1483C498.241 92.2428 498.222 92.3751 498.165 92.4885C498.069 92.8099 497.878 93.3013 497.459 94.2654C496.124 97.1763 494.351 99.8037 491.681 101.656C491.071 102.072 490.289 102.62 489.888 102.828C489.66 102.96 489.488 102.904 489.278 102.752C488.897 102.469 488.439 101.883 487.924 101.448C487.677 101.221 487.39 101.051 487.238 100.919C487.009 100.749 487.181 100.673 487.371 100.635C487.924 100.503 488.401 100.39 488.877 100.106C489.431 99.8037 489.965 99.4635 490.441 99.0854C490.842 98.783 491.223 98.4805 491.567 98.1592C493.568 96.3068 494.961 94.0196 495.762 91.4867C496.22 90.0691 496.525 88.5758 496.639 87.0825C496.697 86.5532 496.639 86.5532 496.258 86.5343C495.724 86.5343 495.018 86.5154 494.294 86.5343C493.568 86.5343 492.806 86.5343 492.063 86.5532C490.899 86.5721 489.716 86.7234 488.573 86.8935C488.362 86.9124 488.172 86.9691 487.962 86.988C487.39 87.0825 487.276 87.1392 487.238 86.6099C487.238 86.4398 487.142 84.5118 487.162 84.285C487.162 84.077 487.257 84.0392 487.485 84.077C487.79 84.1716 488.172 84.2472 488.726 84.3228C489.622 84.4551 493.378 84.5496 494.713 84.5496C495.8 84.5496 496.848 84.5307 497.231 84.4929C497.44 84.4929 497.459 84.4362 497.459 84.2472C497.478 83.7746 497.459 82.6594 497.382 82.2246C497.363 81.9033 497.288 81.582 497.231 81.3929C497.135 81.0527 497.173 80.8637 497.535 80.9393C497.593 80.9393 497.631 80.9582 497.669 80.9582C498.737 81.3173 499.385 81.4496 499.824 81.563Z" fill="#EF3B2C"/>
</svg>
